{"glyphs":{"0":{"ha":1039,"x_min":0,"x_max":0,"o":"m 519 878 b 347 542 364 878 347 844 b 519 206 347 239 364 206 b 692 542 675 206 692 239 b 519 878 692 844 675 878 m 42 542 b 519 1100 42 989 138 1100 b 997 542 901 1100 997 989 b 519 -17 997 94 901 -17 b 42 542 138 -17 42 94 "},"1":{"ha":639,"x_min":0,"x_max":0,"o":"m 306 721 l 42 721 l 42 915 l 168 915 b 319 1083 289 915 319 942 l 569 1083 l 569 0 l 306 0 "},"2":{"ha":1004,"x_min":0,"x_max":0,"o":"m 50 0 l 50 194 l 529 599 b 643 769 621 675 643 710 b 486 864 643 853 628 864 b 347 725 361 864 347 849 l 42 725 b 488 1100 42 1025 142 1100 b 926 822 847 1100 935 1044 b 828 508 922 667 940 606 l 526 250 l 949 250 l 949 0 "},"3":{"ha":1075,"x_min":0,"x_max":0,"o":"m 514 206 b 728 325 694 206 728 225 b 514 442 728 424 694 442 l 346 442 l 346 664 l 522 664 b 708 772 679 664 708 681 b 522 878 708 861 679 878 b 339 788 368 878 339 868 l 75 788 b 522 1100 75 1038 164 1100 b 972 808 882 1100 972 1042 b 813 553 972 651 924 572 b 1006 281 946 535 1006 450 b 522 -17 1006 43 908 -17 b 56 317 149 -17 56 50 l 333 317 b 514 206 333 217 351 206 "},"4":{"ha":1025,"x_min":0,"x_max":0,"o":"m 597 190 l 7 190 l 7 363 l 14 367 l 649 1099 l 690 1099 l 690 1100 l 861 1100 l 861 426 l 983 426 l 983 190 l 861 190 l 861 0 l 597 0 m 597 426 l 597 754 l 314 426 "},"5":{"ha":1082,"x_min":0,"x_max":0,"o":"m 931 847 l 383 847 l 368 632 b 656 746 400 711 489 746 b 1013 367 942 746 1013 669 b 553 -17 1013 60 921 -17 b 56 324 158 -17 56 51 l 361 324 b 542 219 354 229 374 219 b 707 360 690 219 707 233 l 707 361 b 525 526 707 510 689 526 b 343 435 399 526 363 508 l 89 435 l 136 1083 l 931 1083 "},"6":{"ha":1035,"x_min":0,"x_max":0,"o":"m 993 374 b 522 -17 993 61 899 -17 b 42 522 138 -17 42 92 b 628 1083 42 971 158 1083 l 904 1083 l 904 847 l 518 847 b 356 613 388 847 360 822 b 635 760 383 714 471 760 b 993 374 921 760 993 682 m 356 371 b 522 206 356 222 372 206 b 688 372 671 206 688 222 b 522 531 688 515 671 531 b 356 371 406 531 356 483 "},"7":{"ha":926,"x_min":0,"x_max":0,"o":"m 919 1083 l 919 889 l 507 0 l 186 0 l 578 847 l 243 849 l 243 667 l 7 667 l 7 1083 "},"8":{"ha":1065,"x_min":0,"x_max":0,"o":"m 533 675 b 692 776 674 675 692 685 b 533 878 692 868 674 878 b 375 776 393 878 375 868 b 533 675 375 685 393 675 m 42 285 b 265 564 42 460 110 546 b 111 799 158 585 111 658 b 533 1100 111 1040 201 1100 b 956 799 865 1100 956 1040 b 803 564 956 658 908 585 b 1024 285 956 546 1024 460 b 533 -17 1024 43 919 -17 b 42 285 146 -17 42 43 m 347 329 b 533 206 347 218 368 206 b 719 329 699 206 719 218 b 533 453 719 440 699 453 b 347 329 368 453 347 440 "},"9":{"ha":1026,"x_min":0,"x_max":0,"o":"m 42 718 b 513 1100 42 1024 136 1100 b 985 535 888 1100 982 988 b 511 -11 985 99 890 -11 b 74 281 161 -11 74 47 l 379 281 b 529 192 379 200 394 192 b 679 303 664 192 679 203 l 679 501 b 446 371 654 411 581 371 b 42 718 122 371 42 440 m 347 725 b 513 607 347 618 364 607 b 679 731 629 607 679 644 b 513 878 679 863 663 878 b 347 726 364 878 347 863 l 347 725 "}," ":{"ha":417,"x_min":0,"x_max":0,"o":""},"A":{"ha":1201,"x_min":0,"x_max":0,"o":"m 1194 0 l 861 0 l 803 211 l 386 211 l 321 0 l 7 0 l 364 1083 l 847 1083 m 731 447 l 601 847 l 593 847 l 461 447 "},"Á":{"ha":1201,"x_min":0,"x_max":0,"o":"m 1194 0 l 861 0 l 803 211 l 386 211 l 321 0 l 7 0 l 364 1083 l 847 1083 m 731 447 l 601 847 l 593 847 l 461 447 m 597 1363 l 875 1363 l 667 1167 l 500 1167 "},"Ă":{"ha":1201,"x_min":0,"x_max":0,"o":"m 1194 0 l 861 0 l 803 211 l 386 211 l 321 0 l 7 0 l 364 1083 l 847 1083 m 514 1360 b 599 1219 514 1242 526 1219 b 681 1361 668 1219 681 1242 l 806 1361 b 599 1164 806 1194 774 1164 b 389 1361 422 1164 389 1194 m 731 447 l 601 847 l 593 847 l 461 447 "},"Â":{"ha":1201,"x_min":0,"x_max":0,"o":"m 1194 0 l 861 0 l 803 211 l 386 211 l 321 0 l 7 0 l 364 1083 l 847 1083 m 508 1361 l 683 1361 l 874 1167 l 719 1167 l 601 1246 l 593 1246 l 472 1167 l 318 1167 m 731 447 l 601 847 l 593 847 l 461 447 "},"Ä":{"ha":1201,"x_min":0,"x_max":0,"o":"m 1194 0 l 861 0 l 803 211 l 386 211 l 321 0 l 7 0 l 364 1083 l 847 1083 m 333 1361 l 556 1361 l 556 1167 l 333 1167 m 731 447 l 601 847 l 593 847 l 461 447 m 639 1361 l 861 1361 l 861 1167 l 639 1167 "},"À":{"ha":1201,"x_min":0,"x_max":0,"o":"m 1194 0 l 861 0 l 803 211 l 386 211 l 321 0 l 7 0 l 364 1083 l 847 1083 m 597 1363 l 694 1167 l 528 1167 l 319 1363 m 731 447 l 601 847 l 593 847 l 461 447 "},"Ā":{"ha":1201,"x_min":0,"x_max":0,"o":"m 1194 0 l 861 0 l 803 211 l 386 211 l 321 0 l 7 0 l 364 1083 l 847 1083 m 375 1306 l 819 1306 l 819 1181 l 375 1181 m 731 447 l 601 847 l 593 847 l 461 447 "},"Ą":{"ha":1201,"x_min":0,"x_max":0,"o":"m 1194 0 b 1074 -179 1107 -86 1074 -135 b 1167 -214 1074 -221 1099 -231 l 1167 -278 b 1078 -294 1146 -290 1125 -294 b 946 -187 986 -294 946 -265 b 1131 0 946 -129 996 -79 l 861 0 l 803 211 l 386 211 l 321 0 l 7 0 l 364 1083 l 847 1083 m 731 447 l 601 847 l 593 847 l 461 447 "},"Å":{"ha":1201,"x_min":0,"x_max":0,"o":"m 1194 0 l 861 0 l 803 211 l 386 211 l 321 0 l 7 0 l 364 1083 l 847 1083 m 438 1274 b 599 1378 438 1356 481 1378 b 757 1274 714 1378 757 1356 b 599 1167 757 1192 714 1167 b 438 1274 481 1167 438 1192 m 731 447 l 601 847 l 593 847 l 461 447 m 535 1272 b 597 1217 535 1225 543 1217 b 660 1272 651 1217 660 1225 b 597 1328 660 1319 651 1328 b 535 1272 543 1328 535 1319 "},"Ã":{"ha":1201,"x_min":0,"x_max":0,"o":"m 1194 0 l 861 0 l 803 211 l 386 211 l 321 0 l 7 0 l 364 1083 l 847 1083 m 333 1188 b 517 1378 333 1326 383 1378 b 728 1299 642 1378 664 1299 b 792 1356 764 1299 781 1314 l 889 1356 b 706 1165 889 1217 839 1165 b 494 1244 581 1165 558 1244 b 431 1188 458 1244 442 1229 l 333 1188 m 731 447 l 601 847 l 593 847 l 461 447 "},"Æ":{"ha":1656,"x_min":0,"x_max":0,"o":"m 1597 833 l 1000 833 l 1000 667 l 1542 667 l 1542 431 l 1000 431 l 1000 250 l 1600 250 l 1600 0 l 708 0 l 708 211 l 386 211 l 321 0 l 7 0 l 364 1083 l 1597 1083 m 708 447 l 708 833 l 589 833 l 461 447 "},"B":{"ha":1124,"x_min":0,"x_max":0,"o":"m 724 1083 b 1029 801 958 1083 1029 1026 b 829 547 1029 646 963 567 b 1068 285 990 531 1068 449 b 724 0 1068 57 989 0 l 69 0 l 69 1083 m 635 222 b 764 329 751 222 764 233 b 635 439 764 406 725 439 l 361 439 l 361 222 m 607 661 b 725 760 690 661 725 690 b 607 861 725 851 714 861 l 361 861 l 361 661 "},"C":{"ha":1188,"x_min":0,"x_max":0,"o":"m 1146 460 b 596 -17 1149 79 1039 -17 b 42 542 153 -17 42 94 b 596 1100 42 989 153 1100 b 1146 626 1039 1100 1149 1006 l 840 626 b 596 864 843 840 818 864 b 347 542 372 864 347 832 b 596 219 347 251 372 219 b 840 460 818 219 843 243 l 1146 460 "},"Ć":{"ha":1188,"x_min":0,"x_max":0,"o":"m 1146 460 b 596 -17 1149 79 1039 -17 b 42 542 153 -17 42 94 b 596 1100 42 989 153 1100 b 1146 626 1039 1100 1149 1006 l 840 626 b 596 864 843 840 818 864 b 347 542 372 864 347 832 b 596 219 347 251 372 219 b 840 460 818 219 843 243 l 1146 460 m 622 1361 l 900 1361 l 692 1165 l 525 1165 "},"Č":{"ha":1188,"x_min":0,"x_max":0,"o":"m 1146 460 b 596 -17 1149 79 1039 -17 b 42 542 153 -17 42 94 b 596 1100 42 989 153 1100 b 1146 626 1039 1100 1149 1006 l 840 626 b 596 864 843 840 818 864 b 347 542 372 864 347 832 b 596 219 347 251 372 219 b 840 460 818 219 843 243 l 1146 460 m 497 1360 l 618 1281 l 626 1281 l 744 1360 l 899 1360 l 708 1165 l 533 1165 l 343 1360 "},"Ç":{"ha":1188,"x_min":0,"x_max":0,"o":"m 1146 460 b 654 -17 1149 96 1049 -7 l 631 -56 b 769 -174 738 -67 769 -104 b 546 -296 769 -264 721 -296 l 507 -296 l 507 -232 b 642 -181 617 -232 642 -219 l 642 -167 b 507 -115 642 -128 617 -115 l 507 -51 l 585 -17 b 42 542 151 -15 42 99 b 596 1100 42 989 153 1100 b 1146 626 1039 1100 1149 1006 l 840 626 b 596 864 843 840 818 864 b 347 542 372 864 347 832 b 596 219 347 251 372 219 b 840 460 818 219 843 243 l 1146 460 "},"D":{"ha":1165,"x_min":0,"x_max":0,"o":"m 360 542 l 361 250 l 599 250 b 818 542 796 250 818 279 b 599 833 818 804 796 833 l 361 833 m 69 1083 l 629 1083 b 1124 542 1025 1083 1124 975 b 629 0 1124 108 1025 0 l 69 0 "},"Ð":{"ha":1360,"x_min":0,"x_max":0,"o":"m 499 672 l 678 672 l 678 436 l 499 436 l 500 250 l 738 250 b 957 542 935 250 957 279 b 738 833 957 804 935 833 l 500 833 m 83 672 l 208 672 l 208 1083 l 768 1083 b 1263 542 1164 1083 1263 975 b 768 0 1263 108 1164 0 l 208 0 l 208 436 l 83 436 "},"Ď":{"ha":1165,"x_min":0,"x_max":0,"o":"m 360 542 l 361 250 l 599 250 b 818 542 796 250 818 279 b 599 833 818 804 796 833 l 361 833 m 69 1083 l 629 1083 b 1124 542 1025 1083 1124 975 b 629 0 1124 108 1025 0 l 69 0 m 464 1361 l 585 1282 l 593 1282 l 711 1361 l 865 1361 l 675 1167 l 500 1167 l 310 1361 "},"Đ":{"ha":1360,"x_min":0,"x_max":0,"o":"m 499 672 l 678 672 l 678 436 l 499 436 l 500 250 l 738 250 b 957 542 935 250 957 279 b 738 833 957 804 935 833 l 500 833 m 83 672 l 208 672 l 208 1083 l 768 1083 b 1263 542 1164 1083 1263 975 b 768 0 1263 108 1164 0 l 208 0 l 208 436 l 83 436 "},"E":{"ha":1017,"x_min":0,"x_max":0,"o":"m 958 1083 l 958 833 l 361 833 l 361 667 l 903 667 l 903 431 l 361 431 l 361 250 l 961 250 l 961 0 l 69 0 l 69 1083 "},"É":{"ha":1017,"x_min":0,"x_max":0,"o":"m 958 1083 l 958 833 l 361 833 l 361 667 l 903 667 l 903 431 l 361 431 l 361 250 l 961 250 l 961 0 l 69 0 l 69 1083 m 528 1363 l 806 1363 l 597 1167 l 431 1167 "},"Ě":{"ha":1017,"x_min":0,"x_max":0,"o":"m 958 1083 l 958 833 l 361 833 l 361 667 l 903 667 l 903 431 l 361 431 l 361 250 l 961 250 l 961 0 l 69 0 l 69 1083 m 403 1361 l 524 1282 l 532 1282 l 650 1361 l 804 1361 l 614 1167 l 439 1167 l 249 1361 "},"Ê":{"ha":1017,"x_min":0,"x_max":0,"o":"m 958 1083 l 958 833 l 361 833 l 361 667 l 903 667 l 903 431 l 361 431 l 361 250 l 961 250 l 961 0 l 69 0 l 69 1083 m 439 1361 l 614 1361 l 804 1167 l 650 1167 l 532 1246 l 524 1246 l 403 1167 l 249 1167 "},"Ë":{"ha":1017,"x_min":0,"x_max":0,"o":"m 958 1083 l 958 833 l 361 833 l 361 667 l 903 667 l 903 431 l 361 431 l 361 250 l 961 250 l 961 0 l 69 0 l 69 1083 m 264 1361 l 486 1361 l 486 1167 l 264 1167 m 569 1361 l 792 1361 l 792 1167 l 569 1167 "},"Ė":{"ha":1017,"x_min":0,"x_max":0,"o":"m 958 1083 l 958 833 l 361 833 l 361 667 l 903 667 l 903 431 l 361 431 l 361 250 l 961 250 l 961 0 l 69 0 l 69 1083 m 389 1361 l 667 1361 l 667 1167 l 389 1167 "},"È":{"ha":1017,"x_min":0,"x_max":0,"o":"m 958 1083 l 958 833 l 361 833 l 361 667 l 903 667 l 903 431 l 361 431 l 361 250 l 961 250 l 961 0 l 69 0 l 69 1083 m 528 1363 l 625 1167 l 458 1167 l 250 1363 "},"Ē":{"ha":1017,"x_min":0,"x_max":0,"o":"m 958 1083 l 958 833 l 361 833 l 361 667 l 903 667 l 903 431 l 361 431 l 361 250 l 961 250 l 961 0 l 69 0 l 69 1083 m 306 1306 l 750 1306 l 750 1181 l 306 1181 "},"Ę":{"ha":1017,"x_min":0,"x_max":0,"o":"m 958 1083 l 958 833 l 361 833 l 361 667 l 903 667 l 903 431 l 361 431 l 361 250 l 961 250 l 961 0 b 840 -179 874 -86 840 -135 b 933 -214 840 -221 865 -231 l 933 -278 b 844 -294 913 -290 892 -294 b 713 -187 753 -294 713 -265 b 897 0 713 -129 763 -79 l 69 0 l 69 1083 "},"F":{"ha":1014,"x_min":0,"x_max":0,"o":"m 958 1083 l 958 833 l 361 833 l 361 639 l 903 639 l 903 389 l 361 389 l 361 0 l 69 0 l 69 1083 "},"G":{"ha":1189,"x_min":0,"x_max":0,"o":"m 1133 581 l 1133 0 l 869 0 l 869 174 b 589 -17 835 42 746 -17 b 42 542 151 -17 42 94 b 589 1100 42 989 151 1100 b 1133 697 1028 1100 1136 1019 l 828 697 b 589 864 831 847 807 864 b 347 542 371 864 347 832 b 589 219 347 251 371 219 b 836 358 756 219 831 261 l 614 358 l 614 581 "},"Ģ":{"ha":1189,"x_min":0,"x_max":0,"o":"m 1133 581 l 1133 0 l 869 0 l 869 174 b 589 -17 835 42 746 -17 b 42 542 151 -17 42 94 b 589 1100 42 989 151 1100 b 1133 697 1028 1100 1136 1019 l 828 697 b 589 864 831 847 807 864 b 347 542 371 864 347 832 b 589 219 347 251 371 219 b 836 358 756 219 831 261 l 614 358 l 614 581 m 474 -57 l 738 -57 l 738 -115 b 514 -296 738 -261 689 -296 l 475 -296 l 475 -232 b 607 -190 567 -232 599 -224 l 474 -190 "},"H":{"ha":1139,"x_min":0,"x_max":0,"o":"m 69 1083 l 361 1083 l 361 678 l 778 678 l 778 1083 l 1069 1083 l 1069 0 l 778 0 l 778 428 l 361 428 l 361 0 l 69 0 "},"I":{"ha":431,"x_min":0,"x_max":0,"o":"m 69 1083 l 361 1083 l 361 0 l 69 0 "},"Í":{"ha":431,"x_min":0,"x_max":0,"o":"m 69 1083 l 361 1083 l 361 0 l 69 0 m 215 1390 l 493 1390 l 285 1194 l 118 1194 "},"Î":{"ha":431,"x_min":0,"x_max":0,"o":"m 69 1083 l 361 1083 l 361 0 l 69 0 m 126 1389 l 301 1389 l 492 1194 l 338 1194 l 219 1274 l 211 1274 l 90 1194 l -64 1194 "},"Ï":{"ha":431,"x_min":0,"x_max":0,"o":"m 69 1083 l 361 1083 l 361 0 l 69 0 m -49 1389 l 174 1389 l 174 1194 l -49 1194 m 257 1389 l 479 1389 l 479 1194 l 257 1194 "},"Ì":{"ha":431,"x_min":0,"x_max":0,"o":"m 69 1083 l 361 1083 l 361 0 l 69 0 m 215 1390 l 313 1194 l 146 1194 l -62 1390 "},"Ī":{"ha":431,"x_min":0,"x_max":0,"o":"m 69 1083 l 361 1083 l 361 0 l 69 0 m -7 1333 l 438 1333 l 438 1208 l -7 1208 "},"Į":{"ha":431,"x_min":0,"x_max":0,"o":"m 69 1083 l 361 1083 l 361 0 b 240 -179 274 -86 240 -135 b 333 -214 240 -221 265 -231 l 333 -278 b 244 -294 313 -290 292 -294 b 113 -187 153 -294 113 -265 b 297 0 113 -129 163 -79 l 69 0 "},"J":{"ha":947,"x_min":0,"x_max":0,"o":"m 333 364 b 468 222 333 236 347 222 b 600 363 588 222 600 236 l 600 1083 l 892 1083 l 892 363 b 468 -17 892 60 807 -17 b 42 364 126 -17 42 60 l 42 475 l 333 475 l 333 364 "},"K":{"ha":1093,"x_min":0,"x_max":0,"o":"m 69 1083 l 361 1083 l 361 556 l 721 1083 l 1058 1083 l 731 606 l 1086 0 l 764 0 l 528 414 l 361 228 l 361 0 l 69 0 "},"Ķ":{"ha":1156,"x_min":0,"x_max":0,"o":"m 697 -56 l 697 -114 b 474 -294 697 -260 649 -294 l 435 -294 l 435 -231 b 567 -189 526 -231 558 -222 l 433 -189 l 433 -56 m 83 1083 l 375 1083 l 375 556 l 735 1083 l 1072 1083 l 744 606 l 1100 0 l 778 0 l 542 414 l 375 228 l 375 0 l 83 0 "},"L":{"ha":896,"x_min":0,"x_max":0,"o":"m 361 1083 l 361 250 l 889 250 l 889 0 l 69 0 l 69 1083 "},"Ĺ":{"ha":896,"x_min":0,"x_max":0,"o":"m 361 1083 l 361 250 l 889 250 l 889 0 l 69 0 l 69 1083 m 481 1363 l 758 1363 l 550 1167 l 383 1167 "},"Ľ":{"ha":896,"x_min":0,"x_max":0,"o":"m 361 1083 l 361 250 l 889 250 l 889 0 l 69 0 l 69 1083 m 700 1111 l 936 1111 l 825 721 l 700 721 "},"Ļ":{"ha":896,"x_min":0,"x_max":0,"o":"m 361 1083 l 361 250 l 889 250 l 889 0 l 69 0 l 69 1083 m 365 -56 l 629 -56 l 629 -114 b 406 -294 629 -260 581 -294 l 367 -294 l 367 -231 b 499 -189 458 -231 490 -222 l 365 -189 "},"Ł":{"ha":1040,"x_min":0,"x_max":0,"o":"m 458 1083 l 458 657 l 578 685 l 578 546 l 458 518 l 458 250 l 986 250 l 986 0 l 167 0 l 167 449 l 83 429 l 83 568 l 167 588 l 167 1083 "},"M":{"ha":1517,"x_min":0,"x_max":0,"o":"m 69 0 l 69 1083 l 597 1083 l 760 278 l 771 278 l 935 1083 l 1447 1083 l 1447 0 l 1156 0 l 1156 806 l 1147 806 l 983 0 l 532 0 l 369 806 l 361 806 l 361 0 "},"N":{"ha":1194,"x_min":0,"x_max":0,"o":"m 69 1083 l 346 1083 l 825 492 l 833 492 l 833 1083 l 1125 1083 l 1125 0 l 850 0 l 369 590 l 361 590 l 361 0 l 69 0 "},"Ń":{"ha":1194,"x_min":0,"x_max":0,"o":"m 69 1083 l 346 1083 l 825 492 l 833 492 l 833 1083 l 1125 1083 l 1125 0 l 850 0 l 369 590 l 361 590 l 361 0 l 69 0 m 582 1363 l 860 1363 l 651 1167 l 485 1167 "},"Ň":{"ha":1194,"x_min":0,"x_max":0,"o":"m 69 1083 l 346 1083 l 825 492 l 833 492 l 833 1083 l 1125 1083 l 1125 0 l 850 0 l 369 590 l 361 590 l 361 0 l 69 0 m 457 1361 l 578 1282 l 586 1282 l 704 1361 l 858 1361 l 668 1167 l 493 1167 l 303 1361 "},"Ņ":{"ha":1194,"x_min":0,"x_max":0,"o":"m 69 1083 l 346 1083 l 825 492 l 833 492 l 833 1083 l 1125 1083 l 1125 0 l 850 0 l 369 590 l 361 590 l 361 0 l 69 0 m 467 -56 l 731 -56 l 731 -114 b 507 -294 731 -260 682 -294 l 468 -294 l 468 -231 b 600 -189 560 -231 592 -222 l 467 -189 "},"Ñ":{"ha":1194,"x_min":0,"x_max":0,"o":"m 69 1083 l 346 1083 l 825 492 l 833 492 l 833 1083 l 1125 1083 l 1125 0 l 850 0 l 369 590 l 361 590 l 361 0 l 69 0 m 318 1188 b 501 1378 318 1326 368 1378 b 713 1299 626 1378 649 1299 b 776 1356 749 1299 765 1314 l 874 1356 b 690 1165 874 1217 824 1165 b 479 1244 565 1165 543 1244 b 415 1188 443 1244 426 1229 l 318 1188 "},"O":{"ha":1208,"x_min":0,"x_max":0,"o":"m 604 864 b 347 542 372 864 347 832 b 604 219 347 251 372 219 b 861 542 836 219 861 251 b 604 864 861 832 836 864 m 42 542 b 604 1100 42 989 154 1100 b 1167 542 1054 1100 1167 989 b 604 -17 1167 94 1054 -17 b 42 542 154 -17 42 94 "},"Ó":{"ha":1208,"x_min":0,"x_max":0,"o":"m 604 864 b 347 542 372 864 347 832 b 604 219 347 251 372 219 b 861 542 836 219 861 251 b 604 864 861 832 836 864 m 42 542 b 604 1100 42 989 154 1100 b 1167 542 1054 1100 1167 989 b 604 -17 1167 94 1054 -17 b 42 542 154 -17 42 94 m 604 1363 l 882 1363 l 674 1167 l 507 1167 "},"Ô":{"ha":1208,"x_min":0,"x_max":0,"o":"m 604 864 b 347 542 372 864 347 832 b 604 219 347 251 372 219 b 861 542 836 219 861 251 b 604 864 861 832 836 864 m 42 542 b 604 1100 42 989 154 1100 b 1167 542 1054 1100 1167 989 b 604 -17 1167 94 1054 -17 b 42 542 154 -17 42 94 m 515 1361 l 690 1361 l 881 1167 l 726 1167 l 608 1246 l 600 1246 l 479 1167 l 325 1167 "},"Ö":{"ha":1208,"x_min":0,"x_max":0,"o":"m 604 864 b 347 542 372 864 347 832 b 604 219 347 251 372 219 b 861 542 836 219 861 251 b 604 864 861 832 836 864 m 42 542 b 604 1100 42 989 154 1100 b 1167 542 1054 1100 1167 989 b 604 -17 1167 94 1054 -17 b 42 542 154 -17 42 94 m 340 1361 l 563 1361 l 563 1167 l 340 1167 m 646 1361 l 868 1361 l 868 1167 l 646 1167 "},"Ò":{"ha":1208,"x_min":0,"x_max":0,"o":"m 604 864 b 347 542 372 864 347 832 b 604 219 347 251 372 219 b 861 542 836 219 861 251 b 604 864 861 832 836 864 m 42 542 b 604 1100 42 989 154 1100 b 1167 542 1054 1100 1167 989 b 604 -17 1167 94 1054 -17 b 42 542 154 -17 42 94 m 604 1363 l 701 1167 l 535 1167 l 326 1363 "},"Ő":{"ha":1208,"x_min":0,"x_max":0,"o":"m 604 864 b 347 542 372 864 347 832 b 604 219 347 251 372 219 b 861 542 836 219 861 251 b 604 864 861 832 836 864 m 42 542 b 604 1100 42 989 154 1100 b 1167 542 1054 1100 1167 989 b 604 -17 1167 94 1054 -17 b 42 542 154 -17 42 94 m 503 1363 l 711 1363 l 558 1167 l 406 1167 m 767 1363 l 975 1363 l 822 1167 l 669 1167 "},"Ō":{"ha":1208,"x_min":0,"x_max":0,"o":"m 604 864 b 347 542 372 864 347 832 b 604 219 347 251 372 219 b 861 542 836 219 861 251 b 604 864 861 832 836 864 m 42 542 b 604 1100 42 989 154 1100 b 1167 542 1054 1100 1167 989 b 604 -17 1167 94 1054 -17 b 42 542 154 -17 42 94 m 382 1306 l 826 1306 l 826 1181 l 382 1181 "},"Ø":{"ha":1417,"x_min":0,"x_max":0,"o":"m 681 864 b 424 542 449 864 424 832 b 436 342 424 453 426 389 l 897 810 b 681 864 863 856 797 864 m 213 115 b 118 542 142 200 118 335 b 681 1100 118 989 231 1100 b 1099 1015 879 1100 1013 1078 l 1182 1100 l 1333 1100 l 1172 936 b 1243 542 1225 850 1243 724 b 681 -17 1243 94 1131 -17 b 297 46 507 -17 383 0 l 235 -17 l 83 -17 m 494 247 b 681 219 532 224 590 219 b 938 542 913 219 938 251 b 932 693 938 603 936 653 l 494 247 "},"Õ":{"ha":1208,"x_min":0,"x_max":0,"o":"m 604 864 b 347 542 372 864 347 832 b 604 219 347 251 372 219 b 861 542 836 219 861 251 b 604 864 861 832 836 864 m 42 542 b 604 1100 42 989 154 1100 b 1167 542 1054 1100 1167 989 b 604 -17 1167 94 1054 -17 b 42 542 154 -17 42 94 m 340 1188 b 524 1378 340 1326 390 1378 b 735 1299 649 1378 671 1299 b 799 1356 771 1299 788 1314 l 896 1356 b 713 1165 896 1217 846 1165 b 501 1244 588 1165 565 1244 b 438 1188 465 1244 449 1229 l 340 1188 "},"Œ":{"ha":1919,"x_min":0,"x_max":0,"o":"m 604 864 b 347 542 392 864 347 814 b 604 219 347 269 392 219 b 861 542 817 219 861 269 b 604 864 861 814 817 864 m 42 542 b 604 1100 42 1013 135 1100 b 972 944 800 1100 914 1069 l 972 1083 l 1861 1083 l 1861 833 l 1264 833 l 1264 667 l 1806 667 l 1806 431 l 1264 431 l 1264 250 l 1864 250 l 1864 0 l 972 0 l 972 139 b 604 -17 914 14 800 -17 b 42 542 135 -17 42 71 "},"P":{"ha":1092,"x_min":0,"x_max":0,"o":"m 689 1083 b 1050 722 978 1083 1050 1011 b 714 354 1050 442 983 368 l 361 354 l 361 0 l 69 0 l 69 1083 m 614 604 b 758 721 744 604 758 615 b 614 847 758 835 744 847 l 361 847 l 361 604 "},"Þ":{"ha":1092,"x_min":0,"x_max":0,"o":"m 347 1111 l 347 935 l 689 935 b 1050 574 978 935 1050 863 b 714 206 1050 293 983 219 l 347 206 l 347 0 l 69 0 l 69 1111 m 614 456 b 758 572 744 456 758 467 b 614 699 758 686 744 699 l 347 699 l 347 456 "},"Q":{"ha":1253,"x_min":0,"x_max":0,"o":"m 647 236 b 864 542 842 236 864 267 b 606 864 864 832 838 864 b 347 542 374 864 347 832 b 594 236 347 267 372 236 l 647 236 m 42 542 b 606 1100 42 989 154 1100 b 1169 542 1057 1100 1169 989 b 956 236 1169 360 1104 264 l 1211 236 l 1211 0 l 606 0 b 42 542 154 0 42 108 "},"R":{"ha":1106,"x_min":0,"x_max":0,"o":"m 689 1083 b 1050 769 978 1083 1050 1021 b 832 485 1050 590 983 506 b 1050 267 976 469 1050 406 l 1050 0 l 744 0 l 744 250 b 578 382 744 369 729 382 l 361 382 l 361 0 l 69 0 l 69 1083 l 689 1083 m 614 604 b 758 728 744 604 758 617 b 614 847 758 835 744 847 l 361 847 l 361 604 "},"Ŕ":{"ha":1106,"x_min":0,"x_max":0,"o":"m 689 1083 b 1050 769 978 1083 1050 1021 b 832 485 1050 590 983 506 b 1050 267 976 469 1050 406 l 1050 0 l 744 0 l 744 250 b 578 382 744 369 729 382 l 361 382 l 361 0 l 69 0 l 69 1083 l 689 1083 m 614 604 b 758 728 744 604 758 617 b 614 847 758 835 744 847 l 361 847 l 361 604 m 542 1363 l 819 1363 l 611 1167 l 444 1167 "},"Ř":{"ha":1106,"x_min":0,"x_max":0,"o":"m 689 1083 b 1050 769 978 1083 1050 1021 b 832 485 1050 590 983 506 b 1050 267 976 469 1050 406 l 1050 0 l 744 0 l 744 250 b 578 382 744 369 729 382 l 361 382 l 361 0 l 69 0 l 69 1083 l 689 1083 m 417 1361 l 538 1282 l 546 1282 l 664 1361 l 818 1361 l 628 1167 l 453 1167 l 263 1361 m 614 604 b 758 728 744 604 758 617 b 614 847 758 835 744 847 l 361 847 l 361 604 "},"Ŗ":{"ha":1106,"x_min":0,"x_max":0,"o":"m 689 1083 b 1050 769 978 1083 1050 1021 b 832 485 1050 590 983 506 b 1050 267 976 469 1050 406 l 1050 0 l 744 0 l 744 250 b 578 382 744 369 729 382 l 361 382 l 361 0 l 69 0 l 69 1083 l 689 1083 m 614 604 b 758 728 744 604 758 617 b 614 847 758 835 744 847 l 361 847 l 361 604 m 426 -56 l 690 -56 l 690 -114 b 467 -294 690 -260 642 -294 l 428 -294 l 428 -231 b 560 -189 519 -231 551 -222 l 426 -189 "},"S":{"ha":1114,"x_min":0,"x_max":0,"o":"m 556 219 b 767 307 744 219 767 228 b 508 436 767 369 713 396 b 65 775 154 507 65 574 b 564 1100 65 1035 168 1100 b 1065 704 963 1100 1065 1021 l 760 704 b 564 864 760 849 739 864 b 371 772 392 864 371 854 b 558 664 371 715 411 694 b 1072 292 964 585 1072 510 b 564 -17 1072 44 968 -17 b 42 364 149 -17 42 60 l 347 364 b 556 219 347 233 369 219 "},"Ś":{"ha":1114,"x_min":0,"x_max":0,"o":"m 556 219 b 767 307 744 219 767 228 b 508 436 767 369 713 396 b 65 775 154 507 65 574 b 564 1100 65 1035 168 1100 b 1065 704 963 1100 1065 1021 l 760 704 b 564 864 760 849 739 864 b 371 772 392 864 371 854 b 558 664 371 715 411 694 b 1072 292 964 585 1072 510 b 564 -17 1072 44 968 -17 b 42 364 149 -17 42 60 l 347 364 b 556 219 347 233 369 219 m 564 1363 l 842 1363 l 633 1167 l 467 1167 "},"Š":{"ha":1114,"x_min":0,"x_max":0,"o":"m 556 219 b 767 307 744 219 767 228 b 508 436 767 369 713 396 b 65 775 154 507 65 574 b 564 1100 65 1035 168 1100 b 1065 704 963 1100 1065 1021 l 760 704 b 564 864 760 849 739 864 b 371 772 392 864 371 854 b 558 664 371 715 411 694 b 1072 292 964 585 1072 510 b 564 -17 1072 44 968 -17 b 42 364 149 -17 42 60 l 347 364 b 556 219 347 233 369 219 m 439 1361 l 560 1282 l 568 1282 l 686 1361 l 840 1361 l 650 1167 l 475 1167 l 285 1361 "},"Ş":{"ha":1114,"x_min":0,"x_max":0,"o":"m 556 219 b 767 307 744 219 767 228 b 508 436 767 369 713 396 b 65 775 154 507 65 574 b 564 1100 65 1035 168 1100 b 1065 704 963 1100 1065 1021 l 760 704 b 564 864 760 849 739 864 b 371 772 392 864 371 854 b 558 664 371 715 411 694 b 1072 292 964 585 1072 510 b 594 -17 1072 51 974 -14 l 572 -54 b 711 -172 679 -65 711 -103 b 488 -294 711 -262 663 -294 l 449 -294 l 449 -231 b 583 -179 558 -231 583 -218 l 583 -165 b 449 -114 583 -126 558 -114 l 449 -50 l 524 -17 b 42 364 142 -11 42 69 l 347 364 b 556 219 347 233 369 219 "},"ẞ":{"ha":1179,"x_min":0,"x_max":0,"o":"m 1057 828 l 801 581 b 1096 313 1049 574 1096 529 l 1096 285 b 804 0 1096 44 1050 0 l 558 0 l 558 250 l 688 250 b 804 343 786 250 804 267 b 688 438 804 421 786 438 l 507 438 l 507 660 l 753 861 l 361 861 l 361 0 l 83 0 l 83 1083 l 1057 1083 "},"T":{"ha":972,"x_min":0,"x_max":0,"o":"m 339 833 l 7 833 l 7 1083 l 965 1083 l 965 833 l 631 833 l 631 0 l 339 0 "},"Ť":{"ha":972,"x_min":0,"x_max":0,"o":"m 339 833 l 7 833 l 7 1083 l 965 1083 l 965 833 l 631 833 l 631 0 l 339 0 m 360 1361 l 481 1282 l 489 1282 l 607 1361 l 761 1361 l 571 1167 l 396 1167 l 206 1361 "},"Ţ":{"ha":972,"x_min":0,"x_max":0,"o":"m 339 833 l 7 833 l 7 1083 l 965 1083 l 965 833 l 631 833 l 631 0 l 525 0 l 493 -54 b 632 -172 600 -65 632 -103 b 408 -294 632 -262 583 -294 l 369 -294 l 369 -231 b 504 -179 479 -231 504 -218 l 504 -165 b 369 -114 504 -126 479 -114 l 369 -50 l 482 0 l 339 0 "},"U":{"ha":1072,"x_min":0,"x_max":0,"o":"m 1017 444 b 536 -17 1017 75 921 -17 b 56 444 151 -17 56 75 l 56 1083 l 347 1083 l 347 444 b 536 219 347 242 367 219 b 725 444 706 219 725 242 l 725 1083 l 1017 1083 l 1017 444 "},"Ú":{"ha":1072,"x_min":0,"x_max":0,"o":"m 1017 444 b 536 -17 1017 75 921 -17 b 56 444 151 -17 56 75 l 56 1083 l 347 1083 l 347 444 b 536 219 347 242 367 219 b 725 444 706 219 725 242 l 725 1083 l 1017 1083 l 1017 444 m 536 1363 l 814 1363 l 606 1167 l 439 1167 "},"Û":{"ha":1072,"x_min":0,"x_max":0,"o":"m 1017 444 b 536 -17 1017 75 921 -17 b 56 444 151 -17 56 75 l 56 1083 l 347 1083 l 347 444 b 536 219 347 242 367 219 b 725 444 706 219 725 242 l 725 1083 l 1017 1083 l 1017 444 m 447 1361 l 622 1361 l 813 1167 l 658 1167 l 540 1246 l 532 1246 l 411 1167 l 257 1167 "},"Ü":{"ha":1072,"x_min":0,"x_max":0,"o":"m 1017 444 b 536 -17 1017 75 921 -17 b 56 444 151 -17 56 75 l 56 1083 l 347 1083 l 347 444 b 536 219 347 242 367 219 b 725 444 706 219 725 242 l 725 1083 l 1017 1083 l 1017 444 m 272 1361 l 494 1361 l 494 1167 l 272 1167 m 578 1361 l 800 1361 l 800 1167 l 578 1167 "},"Ù":{"ha":1072,"x_min":0,"x_max":0,"o":"m 1017 444 b 536 -17 1017 75 921 -17 b 56 444 151 -17 56 75 l 56 1083 l 347 1083 l 347 444 b 536 219 347 242 367 219 b 725 444 706 219 725 242 l 725 1083 l 1017 1083 l 1017 444 m 536 1363 l 633 1167 l 467 1167 l 258 1363 "},"Ű":{"ha":1072,"x_min":0,"x_max":0,"o":"m 1017 444 b 536 -17 1017 75 921 -17 b 56 444 151 -17 56 75 l 56 1083 l 347 1083 l 347 444 b 536 219 347 242 367 219 b 725 444 706 219 725 242 l 725 1083 l 1017 1083 l 1017 444 m 435 1363 l 643 1363 l 490 1167 l 338 1167 m 699 1363 l 907 1363 l 754 1167 l 601 1167 "},"Ū":{"ha":1072,"x_min":0,"x_max":0,"o":"m 1017 444 b 536 -17 1017 75 921 -17 b 56 444 151 -17 56 75 l 56 1083 l 347 1083 l 347 444 b 536 219 347 242 367 219 b 725 444 706 219 725 242 l 725 1083 l 1017 1083 l 1017 444 m 314 1306 l 758 1306 l 758 1181 l 314 1181 "},"Ų":{"ha":1072,"x_min":0,"x_max":0,"o":"m 1017 444 b 750 -1 1017 156 958 38 b 631 -179 664 -86 631 -135 b 724 -214 631 -221 656 -231 l 724 -278 b 635 -294 703 -290 682 -294 b 503 -187 543 -294 503 -265 b 668 -12 503 -132 547 -85 b 536 -17 628 -15 585 -17 b 56 444 151 -17 56 75 l 56 1083 l 347 1083 l 347 444 b 536 219 347 242 367 219 b 725 444 706 219 725 242 l 725 1083 l 1017 1083 l 1017 444 "},"Ů":{"ha":1072,"x_min":0,"x_max":0,"o":"m 1017 444 b 536 -17 1017 75 921 -17 b 56 444 151 -17 56 75 l 56 1083 l 347 1083 l 347 444 b 536 219 347 242 367 219 b 725 444 706 219 725 242 l 725 1083 l 1017 1083 l 1017 444 m 376 1274 b 538 1378 376 1356 419 1378 b 696 1274 653 1378 696 1356 b 538 1167 696 1192 653 1167 b 376 1274 419 1167 376 1192 m 474 1272 b 536 1217 474 1225 482 1217 b 599 1272 590 1217 599 1225 b 536 1328 599 1319 590 1328 b 474 1272 482 1328 474 1319 "},"V":{"ha":1156,"x_min":0,"x_max":0,"o":"m 794 0 l 333 0 l 7 1083 l 326 1083 l 569 278 l 578 278 l 842 1083 l 1149 1083 "},"W":{"ha":1672,"x_min":0,"x_max":0,"o":"m 1218 250 l 1229 250 l 1382 1083 l 1665 1083 l 1460 0 l 968 0 l 836 833 l 825 833 l 714 0 l 218 0 l 7 1083 l 304 1083 l 461 250 l 472 250 l 582 1083 l 1086 1083 "},"Ẃ":{"ha":1672,"x_min":0,"x_max":0,"o":"m 1218 250 l 1229 250 l 1382 1083 l 1665 1083 l 1460 0 l 968 0 l 836 833 l 825 833 l 714 0 l 218 0 l 7 1083 l 304 1083 l 461 250 l 472 250 l 582 1083 l 1086 1083 m 829 1363 l 1107 1363 l 899 1167 l 732 1167 "},"Ŵ":{"ha":1672,"x_min":0,"x_max":0,"o":"m 1218 250 l 1229 250 l 1382 1083 l 1665 1083 l 1460 0 l 968 0 l 836 833 l 825 833 l 714 0 l 218 0 l 7 1083 l 304 1083 l 461 250 l 472 250 l 582 1083 l 1086 1083 m 740 1361 l 915 1361 l 1106 1167 l 951 1167 l 833 1246 l 825 1246 l 704 1167 l 550 1167 "},"Ẅ":{"ha":1672,"x_min":0,"x_max":0,"o":"m 1218 250 l 1229 250 l 1382 1083 l 1665 1083 l 1460 0 l 968 0 l 836 833 l 825 833 l 714 0 l 218 0 l 7 1083 l 304 1083 l 461 250 l 472 250 l 582 1083 l 1086 1083 m 565 1361 l 788 1361 l 788 1167 l 565 1167 m 871 1361 l 1093 1361 l 1093 1167 l 871 1167 "},"Ẁ":{"ha":1672,"x_min":0,"x_max":0,"o":"m 1218 250 l 1229 250 l 1382 1083 l 1665 1083 l 1460 0 l 968 0 l 836 833 l 825 833 l 714 0 l 218 0 l 7 1083 l 304 1083 l 461 250 l 472 250 l 582 1083 l 1086 1083 m 829 1363 l 926 1167 l 760 1167 l 551 1363 "},"X":{"ha":1136,"x_min":0,"x_max":0,"o":"m 561 692 l 569 692 l 768 1083 l 1103 1083 l 801 544 l 1129 0 l 772 0 l 556 397 l 544 397 l 339 0 l 7 0 l 313 544 l 33 1083 l 375 1083 "},"Y":{"ha":1060,"x_min":0,"x_max":0,"o":"m 728 417 l 686 417 l 686 0 l 394 0 l 394 417 l 343 417 l 7 1083 l 335 1083 l 538 638 l 546 638 l 743 1083 l 1053 1083 "},"Ý":{"ha":1060,"x_min":0,"x_max":0,"o":"m 728 417 l 686 417 l 686 0 l 394 0 l 394 417 l 343 417 l 7 1083 l 335 1083 l 538 638 l 546 638 l 743 1083 l 1053 1083 m 542 1363 l 819 1363 l 611 1167 l 444 1167 "},"Ŷ":{"ha":1060,"x_min":0,"x_max":0,"o":"m 728 417 l 686 417 l 686 0 l 394 0 l 394 417 l 343 417 l 7 1083 l 335 1083 l 538 638 l 546 638 l 743 1083 l 1053 1083 m 453 1361 l 628 1361 l 818 1167 l 664 1167 l 546 1246 l 538 1246 l 417 1167 l 263 1167 "},"Ÿ":{"ha":1060,"x_min":0,"x_max":0,"o":"m 728 417 l 686 417 l 686 0 l 394 0 l 394 417 l 343 417 l 7 1083 l 335 1083 l 538 638 l 546 638 l 743 1083 l 1053 1083 m 278 1361 l 500 1361 l 500 1167 l 278 1167 m 583 1361 l 806 1361 l 806 1167 l 583 1167 "},"Ỳ":{"ha":1060,"x_min":0,"x_max":0,"o":"m 728 417 l 686 417 l 686 0 l 394 0 l 394 417 l 343 417 l 7 1083 l 335 1083 l 538 638 l 546 638 l 743 1083 l 1053 1083 m 542 1363 l 639 1167 l 472 1167 l 264 1363 "},"Z":{"ha":1183,"x_min":0,"x_max":0,"o":"m 1099 1083 l 1099 843 l 451 250 l 1128 250 l 1128 0 l 56 0 l 56 268 l 674 833 l 88 833 l 88 1083 "},"Ź":{"ha":1183,"x_min":0,"x_max":0,"o":"m 1099 1083 l 1099 843 l 451 250 l 1128 250 l 1128 0 l 56 0 l 56 268 l 674 833 l 88 833 l 88 1083 m 590 1363 l 868 1363 l 660 1167 l 493 1167 "},"Ž":{"ha":1183,"x_min":0,"x_max":0,"o":"m 1099 1083 l 1099 843 l 451 250 l 1128 250 l 1128 0 l 56 0 l 56 268 l 674 833 l 88 833 l 88 1083 m 465 1361 l 586 1282 l 594 1282 l 713 1361 l 867 1361 l 676 1167 l 501 1167 l 311 1361 "},"Ż":{"ha":1183,"x_min":0,"x_max":0,"o":"m 1099 1083 l 1099 843 l 451 250 l 1128 250 l 1128 0 l 56 0 l 56 268 l 674 833 l 88 833 l 88 1083 m 451 1361 l 729 1361 l 729 1167 l 451 1167 "},"a":{"ha":915,"x_min":0,"x_max":0,"o":"m 474 850 b 860 561 782 850 860 792 l 860 0 l 596 0 l 596 114 b 364 -17 568 25 496 -15 b 42 240 106 -25 42 26 b 360 494 42 443 106 494 l 596 496 l 596 543 b 471 656 596 644 583 656 b 333 547 344 656 331 644 l 69 547 l 69 576 b 474 850 69 796 150 850 m 319 238 b 471 172 319 176 335 169 b 596 265 558 174 596 201 l 596 301 l 471 300 b 319 238 335 300 319 294 "},"á":{"ha":915,"x_min":0,"x_max":0,"o":"m 474 850 b 860 561 782 850 860 792 l 860 0 l 596 0 l 596 114 b 364 -17 568 25 496 -15 b 42 240 106 -25 42 26 b 360 494 42 443 106 494 l 596 496 l 596 543 b 471 656 596 644 583 656 b 333 547 344 656 331 644 l 69 547 l 69 576 b 474 850 69 796 150 850 m 319 238 b 471 172 319 176 335 169 b 596 265 558 174 596 201 l 596 301 l 471 300 b 319 238 335 300 319 294 m 471 1113 l 749 1113 l 540 917 l 374 917 "},"ă":{"ha":915,"x_min":0,"x_max":0,"o":"m 474 850 b 860 561 782 850 860 792 l 860 0 l 596 0 l 596 114 b 364 -17 568 25 496 -15 b 42 240 106 -25 42 26 b 360 494 42 443 106 494 l 596 496 l 596 543 b 471 656 596 644 583 656 b 333 547 344 656 331 644 l 69 547 l 69 576 b 474 850 69 796 150 850 m 388 1110 b 472 969 388 992 400 969 b 554 1111 542 969 554 992 l 679 1111 b 472 914 679 944 647 914 b 263 1111 296 914 263 944 m 319 238 b 471 172 319 176 335 169 b 596 265 558 174 596 201 l 596 301 l 471 300 b 319 238 335 300 319 294 "},"â":{"ha":915,"x_min":0,"x_max":0,"o":"m 474 850 b 860 561 782 850 860 792 l 860 0 l 596 0 l 596 114 b 364 -17 568 25 496 -15 b 42 240 106 -25 42 26 b 360 494 42 443 106 494 l 596 496 l 596 543 b 471 656 596 644 583 656 b 333 547 344 656 331 644 l 69 547 l 69 576 b 474 850 69 796 150 850 m 382 1111 l 557 1111 l 747 917 l 593 917 l 475 996 l 467 996 l 346 917 l 192 917 m 319 238 b 471 172 319 176 335 169 b 596 265 558 174 596 201 l 596 301 l 471 300 b 319 238 335 300 319 294 "},"ä":{"ha":915,"x_min":0,"x_max":0,"o":"m 474 850 b 860 561 782 850 860 792 l 860 0 l 596 0 l 596 114 b 364 -17 568 25 496 -15 b 42 240 106 -25 42 26 b 360 494 42 443 106 494 l 596 496 l 596 543 b 471 656 596 644 583 656 b 333 547 344 656 331 644 l 69 547 l 69 576 b 474 850 69 796 150 850 m 207 1111 l 429 1111 l 429 917 l 207 917 m 319 238 b 471 172 319 176 335 169 b 596 265 558 174 596 201 l 596 301 l 471 300 b 319 238 335 300 319 294 m 513 1111 l 735 1111 l 735 917 l 513 917 "},"à":{"ha":915,"x_min":0,"x_max":0,"o":"m 474 850 b 860 561 782 850 860 792 l 860 0 l 596 0 l 596 114 b 364 -17 568 25 496 -15 b 42 240 106 -25 42 26 b 360 494 42 443 106 494 l 596 496 l 596 543 b 471 656 596 644 583 656 b 333 547 344 656 331 644 l 69 547 l 69 576 b 474 850 69 796 150 850 m 471 1113 l 568 917 l 401 917 l 193 1113 m 319 238 b 471 172 319 176 335 169 b 596 265 558 174 596 201 l 596 301 l 471 300 b 319 238 335 300 319 294 "},"ā":{"ha":915,"x_min":0,"x_max":0,"o":"m 474 850 b 860 561 782 850 860 792 l 860 0 l 596 0 l 596 114 b 364 -17 568 25 496 -15 b 42 240 106 -25 42 26 b 360 494 42 443 106 494 l 596 496 l 596 543 b 471 656 596 644 583 656 b 333 547 344 656 331 644 l 69 547 l 69 576 b 474 850 69 796 150 850 m 249 1056 l 693 1056 l 693 931 l 249 931 m 319 238 b 471 172 319 176 335 169 b 596 265 558 174 596 201 l 596 301 l 471 300 b 319 238 335 300 319 294 "},"ą":{"ha":915,"x_min":0,"x_max":0,"o":"m 474 850 b 860 561 782 850 860 792 l 860 0 b 739 -179 772 -86 739 -135 b 832 -214 739 -221 764 -231 l 832 -278 b 743 -294 811 -290 790 -294 b 611 -187 651 -294 611 -265 b 796 0 611 -129 661 -79 l 596 0 l 596 114 b 364 -17 568 25 496 -15 b 42 240 106 -25 42 26 b 360 494 42 443 106 494 l 596 496 l 596 543 b 471 656 596 644 583 656 b 333 547 344 656 331 644 l 69 547 l 69 576 b 474 850 69 796 150 850 m 319 238 b 471 172 319 176 335 169 b 596 265 558 174 596 201 l 596 301 l 471 300 b 319 238 335 300 319 294 "},"å":{"ha":915,"x_min":0,"x_max":0,"o":"m 474 850 b 860 561 782 850 860 792 l 860 0 l 596 0 l 596 114 b 364 -17 568 25 496 -15 b 42 240 106 -25 42 26 b 360 494 42 443 106 494 l 596 496 l 596 543 b 471 656 596 644 583 656 b 333 547 344 656 331 644 l 69 547 l 69 576 b 474 850 69 796 150 850 m 311 1024 b 472 1128 311 1106 354 1128 b 631 1024 588 1128 631 1106 b 472 917 631 942 588 917 b 311 1024 354 917 311 942 m 319 238 b 471 172 319 176 335 169 b 596 265 558 174 596 201 l 596 301 l 471 300 b 319 238 335 300 319 294 m 408 1022 b 471 967 408 975 417 967 b 533 1022 525 967 533 975 b 471 1078 533 1069 525 1078 b 408 1022 417 1078 408 1069 "},"ã":{"ha":915,"x_min":0,"x_max":0,"o":"m 474 850 b 860 561 782 850 860 792 l 860 0 l 596 0 l 596 114 b 364 -17 568 25 496 -15 b 42 240 106 -25 42 26 b 360 494 42 443 106 494 l 596 496 l 596 543 b 471 656 596 644 583 656 b 333 547 344 656 331 644 l 69 547 l 69 576 b 474 850 69 796 150 850 m 207 938 b 390 1128 207 1076 257 1128 b 601 1049 515 1128 538 1049 b 665 1106 638 1049 654 1064 l 763 1106 b 579 915 763 967 713 915 b 368 994 454 915 432 994 b 304 938 332 994 315 979 l 207 938 m 319 238 b 471 172 319 176 335 169 b 596 265 558 174 596 201 l 596 301 l 471 300 b 319 238 335 300 319 294 "},"æ":{"ha":1482,"x_min":0,"x_max":0,"o":"m 474 850 b 779 751 625 850 724 819 b 1017 850 822 819 899 850 b 1440 457 1349 850 1440 771 l 1440 328 l 872 328 b 1018 178 879 194 908 178 b 1156 265 1125 178 1156 196 l 1433 265 b 1017 -17 1433 40 1347 -17 b 678 167 829 -17 722 39 b 364 -17 664 40 561 -15 b 42 240 106 -25 42 26 b 360 494 42 443 106 494 l 596 496 l 596 543 b 471 656 596 644 582 656 b 333 547 346 656 331 644 l 69 547 l 69 576 b 474 850 69 796 150 850 m 319 238 b 471 172 319 178 336 169 b 596 238 553 174 596 171 l 596 301 l 471 300 b 319 238 336 300 319 294 m 1163 522 b 1018 656 1161 643 1144 656 b 874 522 913 656 882 640 "},"b":{"ha":964,"x_min":0,"x_max":0,"o":"m 333 1111 l 333 721 b 611 850 364 811 453 850 b 922 417 860 850 922 764 b 597 -17 922 69 857 -17 b 326 174 435 -17 350 42 l 326 0 l 69 0 l 69 1111 m 333 294 b 486 206 333 232 390 206 b 644 417 629 206 644 226 b 501 628 644 607 631 628 b 333 469 383 628 333 581 l 333 294 "},"c":{"ha":940,"x_min":0,"x_max":0,"o":"m 478 -17 b 42 417 129 -17 42 69 b 478 850 42 764 129 850 b 899 483 806 850 890 776 l 621 483 b 478 642 615 626 601 642 b 319 417 335 642 319 619 b 478 192 319 214 335 192 b 621 353 600 192 614 208 l 899 353 b 478 -17 892 57 807 -17 "},"ć":{"ha":940,"x_min":0,"x_max":0,"o":"m 478 -17 b 42 417 129 -17 42 69 b 478 850 42 764 129 850 b 899 483 806 850 890 776 l 621 483 b 478 642 615 626 601 642 b 319 417 335 642 319 619 b 478 192 319 214 335 192 b 621 353 600 192 614 208 l 899 353 b 478 -17 892 57 807 -17 m 478 1113 l 756 1113 l 547 917 l 381 917 "},"č":{"ha":940,"x_min":0,"x_max":0,"o":"m 478 -17 b 42 417 129 -17 42 69 b 478 850 42 764 129 850 b 899 483 806 850 890 776 l 621 483 b 478 642 615 626 601 642 b 319 417 335 642 319 619 b 478 192 319 214 335 192 b 621 353 600 192 614 208 l 899 353 b 478 -17 892 57 807 -17 m 353 1111 l 474 1032 l 482 1032 l 600 1111 l 754 1111 l 564 917 l 389 917 l 199 1111 "},"ç":{"ha":940,"x_min":0,"x_max":0,"o":"m 625 -172 b 401 -294 625 -262 576 -294 l 363 -294 l 363 -231 b 497 -179 472 -231 497 -218 l 497 -165 b 363 -114 497 -126 472 -114 l 363 -50 l 438 -17 b 42 417 122 -10 42 83 b 478 850 42 764 129 850 b 899 483 806 850 890 776 l 621 483 b 478 642 615 626 601 642 b 319 417 335 642 319 619 b 478 192 319 214 335 192 b 621 353 600 192 614 208 l 899 353 b 508 -17 892 67 813 -11 l 486 -54 b 625 -172 593 -65 625 -103 "},"d":{"ha":964,"x_min":0,"x_max":0,"o":"m 894 0 l 638 0 l 638 174 b 367 -17 614 42 529 -17 b 42 417 107 -17 42 69 b 353 850 42 764 104 850 b 631 721 511 850 600 811 l 631 1111 l 894 1111 m 319 417 b 478 206 319 226 335 206 b 631 294 574 206 631 232 l 631 469 b 463 628 631 581 581 628 b 319 417 333 628 319 607 "},"ð":{"ha":928,"x_min":0,"x_max":0,"o":"m 624 1111 b 692 1029 649 1083 671 1057 l 849 1029 l 849 904 l 774 904 b 886 424 851 764 886 610 b 471 -17 886 71 803 -17 b 42 357 128 -17 42 58 l 42 476 b 344 833 42 763 103 833 b 610 688 490 833 572 789 b 542 888 599 758 576 824 l 335 888 l 335 1013 l 454 1013 b 360 1111 426 1044 396 1078 l 624 1111 m 306 363 b 465 213 306 228 321 213 b 622 363 607 213 622 228 l 622 438 b 465 603 621 553 574 603 b 306 468 321 603 306 589 l 306 363 "},"ď":{"ha":1415,"x_min":0,"x_max":0,"o":"m 908 0 l 651 0 l 651 174 b 381 -17 628 42 543 -17 b 56 417 121 -17 56 69 b 367 850 56 764 118 850 b 644 721 525 850 614 811 l 644 1111 l 908 1111 m 333 417 b 492 206 333 226 349 206 b 644 294 588 206 644 232 l 644 469 b 476 628 644 581 594 628 b 333 417 347 628 333 607 m 1096 1111 l 1332 1111 l 1221 721 l 1096 721 "},"đ":{"ha":964,"x_min":0,"x_max":0,"o":"m 894 1054 l 1025 1054 l 1025 929 l 894 929 l 894 0 l 638 0 l 638 174 b 367 -17 614 42 529 -17 b 42 417 107 -17 42 69 b 353 850 42 764 104 850 b 631 721 511 850 600 811 l 631 929 l 581 929 l 581 1054 l 631 1054 l 631 1111 l 894 1111 m 319 417 b 478 206 319 226 335 206 b 631 294 574 206 631 232 l 631 469 b 463 628 631 581 581 628 b 319 417 333 628 319 607 "},"e":{"ha":931,"x_min":0,"x_max":0,"o":"m 882 265 b 465 -17 876 40 793 -17 b 42 417 126 -17 42 69 b 465 850 42 764 126 850 b 889 471 794 850 882 774 l 889 342 l 321 342 b 467 178 326 196 353 178 b 604 265 576 178 604 196 l 882 265 m 611 536 b 467 656 608 643 589 656 b 322 536 364 656 332 642 "},"é":{"ha":931,"x_min":0,"x_max":0,"o":"m 882 265 b 465 -17 876 40 793 -17 b 42 417 126 -17 42 69 b 465 850 42 764 126 850 b 889 471 794 850 882 774 l 889 342 l 321 342 b 467 178 326 196 353 178 b 604 265 576 178 604 196 l 882 265 m 611 536 b 467 656 608 643 589 656 b 322 536 364 656 332 642 m 467 1113 l 744 1113 l 536 917 l 369 917 "},"ě":{"ha":931,"x_min":0,"x_max":0,"o":"m 882 265 b 465 -17 876 40 793 -17 b 42 417 126 -17 42 69 b 465 850 42 764 126 850 b 889 471 794 850 882 774 l 889 342 l 321 342 b 467 178 326 196 353 178 b 604 265 576 178 604 196 l 882 265 m 342 1111 l 463 1032 l 471 1032 l 589 1111 l 743 1111 l 553 917 l 378 917 l 188 1111 m 611 536 b 467 656 608 643 589 656 b 322 536 364 656 332 642 "},"ê":{"ha":931,"x_min":0,"x_max":0,"o":"m 882 265 b 465 -17 876 40 793 -17 b 42 417 126 -17 42 69 b 465 850 42 764 126 850 b 889 471 794 850 882 774 l 889 342 l 321 342 b 467 178 326 196 353 178 b 604 265 576 178 604 196 l 882 265 m 378 1111 l 553 1111 l 743 917 l 589 917 l 471 996 l 463 996 l 342 917 l 188 917 m 611 536 b 467 656 608 643 589 656 b 322 536 364 656 332 642 "},"ë":{"ha":931,"x_min":0,"x_max":0,"o":"m 882 265 b 465 -17 876 40 793 -17 b 42 417 126 -17 42 69 b 465 850 42 764 126 850 b 889 471 794 850 882 774 l 889 342 l 321 342 b 467 178 326 196 353 178 b 604 265 576 178 604 196 l 882 265 m 203 1111 l 425 1111 l 425 917 l 203 917 m 611 536 b 467 656 608 643 589 656 b 322 536 364 656 332 642 m 508 1111 l 731 1111 l 731 917 l 508 917 "},"ė":{"ha":931,"x_min":0,"x_max":0,"o":"m 882 265 b 465 -17 876 40 793 -17 b 42 417 126 -17 42 69 b 465 850 42 764 126 850 b 889 471 794 850 882 774 l 889 342 l 321 342 b 467 178 326 196 353 178 b 604 265 576 178 604 196 l 882 265 m 611 536 b 467 656 608 643 589 656 b 322 536 364 656 332 642 m 328 1111 l 606 1111 l 606 917 l 328 917 "},"è":{"ha":931,"x_min":0,"x_max":0,"o":"m 882 265 b 465 -17 876 40 793 -17 b 42 417 126 -17 42 69 b 465 850 42 764 126 850 b 889 471 794 850 882 774 l 889 342 l 321 342 b 467 178 326 196 353 178 b 604 265 576 178 604 196 l 882 265 m 467 1113 l 564 917 l 397 917 l 189 1113 m 611 536 b 467 656 608 643 589 656 b 322 536 364 656 332 642 "},"ē":{"ha":931,"x_min":0,"x_max":0,"o":"m 882 265 b 465 -17 876 40 793 -17 b 42 417 126 -17 42 69 b 465 850 42 764 126 850 b 889 471 794 850 882 774 l 889 342 l 321 342 b 467 178 326 196 353 178 b 604 265 576 178 604 196 l 882 265 m 244 1056 l 689 1056 l 689 931 l 244 931 m 611 536 b 467 656 608 643 589 656 b 322 536 364 656 332 642 "},"ę":{"ha":931,"x_min":0,"x_max":0,"o":"m 882 265 b 686 -1 878 103 833 28 b 567 -179 600 -86 567 -135 b 660 -214 567 -221 592 -231 l 660 -278 b 571 -294 639 -290 618 -294 b 439 -187 479 -294 439 -265 b 604 -12 439 -132 483 -85 b 465 -17 564 -15 517 -17 b 42 417 126 -17 42 69 b 465 850 42 764 126 850 b 889 471 794 850 882 774 l 889 342 l 321 342 b 467 178 326 196 353 178 b 604 265 576 178 604 196 l 882 265 m 611 536 b 467 656 608 643 589 656 b 322 536 364 656 332 642 "},"f":{"ha":646,"x_min":0,"x_max":0,"o":"m 471 917 b 389 842 397 917 389 910 l 389 833 l 611 833 l 611 611 l 389 611 l 389 0 l 125 0 l 125 611 l 42 611 l 42 833 l 125 833 b 458 1111 125 1056 193 1111 l 639 1111 l 639 917 l 471 917 "},"g":{"ha":950,"x_min":0,"x_max":0,"o":"m 453 -294 b 67 -14 144 -294 67 -239 l 317 -14 b 453 -89 317 -74 344 -89 b 617 -14 600 -89 617 -82 l 617 197 b 339 32 590 82 503 32 b 42 442 101 32 42 114 b 353 850 42 768 104 850 b 624 676 515 850 600 797 l 624 833 l 881 833 l 881 -53 b 453 -294 881 -246 794 -294 m 299 442 b 457 254 299 272 314 254 b 610 344 556 254 610 285 l 610 468 b 443 628 610 581 558 628 b 299 442 313 628 299 610 "},"ģ":{"ha":950,"x_min":0,"x_max":0,"o":"m 453 -294 b 67 -14 144 -294 67 -239 l 317 -14 b 453 -89 317 -74 344 -89 b 617 -14 600 -89 617 -82 l 617 197 b 339 32 590 82 503 32 b 42 442 101 32 42 114 b 353 850 42 768 104 850 b 624 676 515 850 600 797 l 624 833 l 881 833 l 881 -53 b 453 -294 881 -246 794 -294 m 299 442 b 457 254 299 272 314 254 b 610 344 556 254 610 285 l 610 468 b 443 628 610 581 558 628 b 299 442 313 628 299 610 m 332 947 b 556 1128 332 1093 381 1128 l 594 1128 l 594 1064 b 463 1022 503 1064 471 1056 l 596 1022 l 596 889 l 332 889 "},"h":{"ha":915,"x_min":0,"x_max":0,"o":"m 333 1111 l 333 701 b 585 850 360 804 440 850 b 858 539 801 850 858 788 l 860 0 l 596 0 l 596 476 b 481 628 596 613 585 628 b 333 463 378 628 333 578 l 333 0 l 69 0 l 69 1111 "},"i":{"ha":417,"x_min":0,"x_max":0,"o":"m 340 833 l 340 0 l 76 0 l 76 833 m 69 1111 l 347 1111 l 347 917 l 69 917 "},"ı":{"ha":403,"x_min":0,"x_max":0,"o":"m 333 833 l 333 0 l 69 0 l 69 833 "},"í":{"ha":403,"x_min":0,"x_max":0,"o":"m 333 833 l 333 0 l 69 0 l 69 833 m 201 1113 l 479 1113 l 271 917 l 104 917 "},"î":{"ha":403,"x_min":0,"x_max":0,"o":"m 333 833 l 333 0 l 69 0 l 69 833 m 113 1111 l 288 1111 l 478 917 l 324 917 l 206 996 l 197 996 l 76 917 l -78 917 "},"ï":{"ha":403,"x_min":0,"x_max":0,"o":"m 333 833 l 333 0 l 69 0 l 69 833 m -62 1111 l 160 1111 l 160 917 l -62 917 m 243 1111 l 465 1111 l 465 917 l 243 917 "},"ì":{"ha":403,"x_min":0,"x_max":0,"o":"m 333 833 l 333 0 l 69 0 l 69 833 m 201 1113 l 299 917 l 132 917 l -76 1113 "},"ĳ":{"ha":842,"x_min":0,"x_max":0,"o":"m 340 833 l 340 0 l 76 0 l 76 833 m 69 1111 l 347 1111 l 347 917 l 69 917 m 406 -42 b 501 43 486 -42 501 -28 l 501 833 l 765 833 l 765 3 b 433 -278 765 -222 699 -278 l 406 -278 m 494 1111 l 772 1111 l 772 917 l 494 917 "},"ī":{"ha":403,"x_min":0,"x_max":0,"o":"m 333 833 l 333 0 l 69 0 l 69 833 m -21 1056 l 424 1056 l 424 931 l -21 931 "},"į":{"ha":417,"x_min":0,"x_max":0,"o":"m 340 833 l 340 0 b 219 -179 253 -86 219 -135 b 313 -214 219 -221 244 -231 l 313 -278 b 224 -294 292 -290 271 -294 b 92 -187 132 -294 92 -265 b 276 0 92 -129 142 -79 l 76 0 l 76 833 m 69 1111 l 347 1111 l 347 917 l 69 917 "},"j":{"ha":443,"x_min":0,"x_max":0,"o":"m 7 -42 b 103 43 88 -42 103 -28 l 103 833 l 367 833 l 367 3 b 35 -278 367 -222 300 -278 l 7 -278 l 7 -42 m 96 1111 l 374 1111 l 374 917 l 96 917 "},"ȷ":{"ha":499,"x_min":0,"x_max":0,"o":"m 69 -42 b 165 43 150 -42 165 -28 l 165 833 l 429 833 l 429 3 b 97 -278 429 -222 363 -278 l 69 -278 l 69 -42 "},"k":{"ha":918,"x_min":0,"x_max":0,"o":"m 69 1111 l 333 1111 l 333 518 l 589 833 l 911 833 l 606 457 l 901 0 l 603 0 l 415 300 l 333 229 l 333 0 l 69 0 "},"ķ":{"ha":918,"x_min":0,"x_max":0,"o":"m 69 1111 l 333 1111 l 333 518 l 589 833 l 911 833 l 606 457 l 901 0 l 603 0 l 415 300 l 333 229 l 333 0 l 69 0 m 358 -56 l 622 -56 l 622 -114 b 399 -294 622 -260 574 -294 l 360 -294 l 360 -231 b 492 -189 451 -231 483 -222 l 358 -189 "},"l":{"ha":485,"x_min":0,"x_max":0,"o":"m 443 0 l 292 0 b 69 228 113 0 68 46 l 69 1111 l 333 1111 l 333 307 b 443 236 333 243 344 236 "},"ĺ":{"ha":485,"x_min":0,"x_max":0,"o":"m 443 0 l 292 0 b 69 228 113 0 68 46 l 69 1111 l 333 1111 l 333 307 b 443 236 333 243 344 236 m 204 1390 l 482 1390 l 274 1194 l 107 1194 "},"ľ":{"ha":778,"x_min":0,"x_max":0,"o":"m 443 0 l 292 0 b 69 228 113 0 68 46 l 69 1111 l 333 1111 l 333 307 b 443 236 333 243 344 236 m 458 1111 l 694 1111 l 583 721 l 458 721 "},"ļ":{"ha":485,"x_min":0,"x_max":0,"o":"m 443 0 l 292 0 b 69 228 113 0 68 46 l 69 1111 l 333 1111 l 333 307 b 443 236 333 243 344 236 m 147 -56 l 411 -56 l 411 -114 b 188 -294 411 -260 363 -294 l 149 -294 l 149 -231 b 281 -189 240 -231 272 -222 l 147 -189 "},"ł":{"ha":661,"x_min":0,"x_max":0,"o":"m 564 0 l 413 0 b 190 228 233 0 189 46 l 190 451 l 107 429 l 107 554 l 190 576 l 190 1111 l 454 1111 l 454 646 l 551 671 l 551 546 l 454 521 l 454 307 b 564 236 454 243 465 236 "},"m":{"ha":1417,"x_min":0,"x_max":0,"o":"m 333 833 l 333 738 b 529 850 361 815 425 850 b 817 679 719 850 794 813 b 1043 850 842 797 913 850 b 1361 483 1297 850 1361 776 l 1361 0 l 1097 0 l 1097 449 b 975 628 1097 610 1085 628 b 846 458 883 628 844 576 l 846 0 l 585 0 l 585 449 b 461 628 585 610 572 628 b 333 458 372 628 333 576 l 333 0 l 69 0 l 69 833 "},"n":{"ha":915,"x_min":0,"x_max":0,"o":"m 333 833 l 333 703 b 585 850 360 804 439 850 b 858 539 804 850 858 788 l 860 0 l 596 0 l 596 472 b 479 628 596 613 585 628 b 335 472 378 628 335 581 l 333 0 l 69 0 l 69 833 "},"ń":{"ha":915,"x_min":0,"x_max":0,"o":"m 333 833 l 333 703 b 585 850 360 804 439 850 b 858 539 804 850 858 788 l 860 0 l 596 0 l 596 472 b 479 628 596 613 585 628 b 335 472 378 628 335 581 l 333 0 l 69 0 l 69 833 m 449 1113 l 726 1113 l 518 917 l 351 917 "},"ň":{"ha":915,"x_min":0,"x_max":0,"o":"m 333 833 l 333 703 b 585 850 360 804 439 850 b 858 539 804 850 858 788 l 860 0 l 596 0 l 596 472 b 479 628 596 613 585 628 b 335 472 378 628 335 581 l 333 0 l 69 0 l 69 833 m 324 1111 l 444 1032 l 453 1032 l 571 1111 l 725 1111 l 535 917 l 360 917 l 169 1111 "},"ņ":{"ha":915,"x_min":0,"x_max":0,"o":"m 333 833 l 333 703 b 585 850 360 804 439 850 b 858 539 804 850 858 788 l 860 0 l 596 0 l 596 472 b 479 628 596 613 585 628 b 335 472 378 628 335 581 l 333 0 l 69 0 l 69 833 m 333 -56 l 597 -56 l 597 -114 b 374 -294 597 -260 549 -294 l 335 -294 l 335 -231 b 467 -189 426 -231 458 -222 l 333 -189 "},"ñ":{"ha":915,"x_min":0,"x_max":0,"o":"m 333 833 l 333 703 b 585 850 360 804 439 850 b 858 539 804 850 858 788 l 860 0 l 596 0 l 596 472 b 479 628 596 613 585 628 b 335 472 378 628 335 581 l 333 0 l 69 0 l 69 833 m 185 938 b 368 1128 185 1076 235 1128 b 579 1049 493 1128 515 1049 b 643 1106 615 1049 632 1064 l 740 1106 b 557 915 740 967 690 915 b 346 994 432 915 410 994 b 282 938 310 994 293 979 l 185 938 "},"o":{"ha":956,"x_min":0,"x_max":0,"o":"m 478 642 b 319 417 335 642 319 619 b 478 192 319 214 335 192 b 636 417 621 192 636 214 b 478 642 636 619 621 642 m 42 417 b 478 850 42 764 129 850 b 914 417 826 850 914 764 b 478 -17 914 69 826 -17 b 42 417 129 -17 42 69 "},"ó":{"ha":956,"x_min":0,"x_max":0,"o":"m 478 642 b 319 417 335 642 319 619 b 478 192 319 214 335 192 b 636 417 621 192 636 214 b 478 642 636 619 621 642 m 42 417 b 478 850 42 764 129 850 b 914 417 826 850 914 764 b 478 -17 914 69 826 -17 b 42 417 129 -17 42 69 m 478 1113 l 756 1113 l 547 917 l 381 917 "},"ô":{"ha":956,"x_min":0,"x_max":0,"o":"m 478 642 b 319 417 335 642 319 619 b 478 192 319 214 335 192 b 636 417 621 192 636 214 b 478 642 636 619 621 642 m 42 417 b 478 850 42 764 129 850 b 914 417 826 850 914 764 b 478 -17 914 69 826 -17 b 42 417 129 -17 42 69 m 389 1111 l 564 1111 l 754 917 l 600 917 l 482 996 l 474 996 l 353 917 l 199 917 "},"ö":{"ha":956,"x_min":0,"x_max":0,"o":"m 478 642 b 319 417 335 642 319 619 b 478 192 319 214 335 192 b 636 417 621 192 636 214 b 478 642 636 619 621 642 m 42 417 b 478 850 42 764 129 850 b 914 417 826 850 914 764 b 478 -17 914 69 826 -17 b 42 417 129 -17 42 69 m 214 1111 l 436 1111 l 436 917 l 214 917 m 519 1111 l 742 1111 l 742 917 l 519 917 "},"ò":{"ha":956,"x_min":0,"x_max":0,"o":"m 478 642 b 319 417 335 642 319 619 b 478 192 319 214 335 192 b 636 417 621 192 636 214 b 478 642 636 619 621 642 m 42 417 b 478 850 42 764 129 850 b 914 417 826 850 914 764 b 478 -17 914 69 826 -17 b 42 417 129 -17 42 69 m 478 1113 l 575 917 l 408 917 l 200 1113 "},"ő":{"ha":956,"x_min":0,"x_max":0,"o":"m 478 642 b 319 417 335 642 319 619 b 478 192 319 214 335 192 b 636 417 621 192 636 214 b 478 642 636 619 621 642 m 42 417 b 478 850 42 764 129 850 b 914 417 826 850 914 764 b 478 -17 914 69 826 -17 b 42 417 129 -17 42 69 m 376 1113 l 585 1113 l 432 917 l 279 917 m 640 1113 l 849 1113 l 696 917 l 543 917 "},"ō":{"ha":956,"x_min":0,"x_max":0,"o":"m 478 642 b 319 417 335 642 319 619 b 478 192 319 214 335 192 b 636 417 621 192 636 214 b 478 642 636 619 621 642 m 42 417 b 478 850 42 764 129 850 b 914 417 826 850 914 764 b 478 -17 914 69 826 -17 b 42 417 129 -17 42 69 m 256 1056 l 700 1056 l 700 931 l 256 931 "},"ø":{"ha":1217,"x_min":0,"x_max":0,"o":"m 582 642 b 424 417 439 642 424 619 b 426 310 424 374 425 339 l 722 592 b 582 642 703 635 663 642 m 207 101 b 146 417 161 168 146 268 b 582 850 146 764 233 850 b 917 776 744 850 850 832 l 994 850 l 1133 850 l 975 700 b 1018 417 1007 635 1018 543 b 582 -17 1018 69 931 -17 b 278 36 442 -17 344 -3 l 222 -17 l 83 -17 m 464 213 b 582 192 488 196 524 192 b 740 417 725 192 740 214 l 740 475 l 464 213 "},"õ":{"ha":956,"x_min":0,"x_max":0,"o":"m 478 642 b 319 417 335 642 319 619 b 478 192 319 214 335 192 b 636 417 621 192 636 214 b 478 642 636 619 621 642 m 42 417 b 478 850 42 764 129 850 b 914 417 826 850 914 764 b 478 -17 914 69 826 -17 b 42 417 129 -17 42 69 m 214 938 b 397 1128 214 1076 264 1128 b 608 1049 522 1128 544 1049 b 672 1106 644 1049 661 1064 l 769 1106 b 586 915 769 967 719 915 b 375 994 461 915 439 994 b 311 938 339 994 322 979 l 214 938 "},"œ":{"ha":1510,"x_min":0,"x_max":0,"o":"m 478 628 b 319 417 346 628 319 593 b 478 206 319 240 346 206 b 664 417 638 206 664 240 b 478 628 664 593 638 628 m 42 417 b 478 850 42 764 129 850 b 806 750 647 850 749 825 b 1044 850 849 819 925 850 b 1468 457 1383 850 1468 771 l 1468 328 l 900 328 b 1046 178 907 194 936 178 b 1183 265 1153 178 1183 196 l 1461 265 b 1044 -17 1461 40 1378 -17 b 749 88 903 -17 806 15 b 478 -17 700 15 613 -17 b 42 417 129 -17 42 69 m 1190 522 b 1046 656 1189 643 1172 656 b 901 522 940 656 910 640 "},"p":{"ha":964,"x_min":0,"x_max":0,"o":"m 69 833 l 326 833 l 326 676 b 597 850 350 797 435 850 b 922 417 857 850 922 764 b 611 -17 922 69 860 -17 b 333 149 447 -17 360 33 l 333 -278 l 69 -278 m 333 296 b 486 206 333 236 388 206 b 644 417 629 206 644 226 b 500 628 644 607 631 628 b 333 468 385 628 333 581 l 333 296 "},"þ":{"ha":950,"x_min":0,"x_max":0,"o":"m 69 1111 l 333 1111 l 333 658 b 597 850 360 785 438 850 b 908 476 857 850 908 771 l 908 357 b 611 -17 908 58 849 -17 b 333 169 451 -17 365 33 l 333 -278 l 69 -278 m 333 296 b 486 206 333 236 388 206 b 644 365 629 206 644 221 l 644 471 b 500 628 644 613 629 628 b 333 468 385 628 333 581 l 333 296 "},"q":{"ha":964,"x_min":0,"x_max":0,"o":"m 631 -278 l 631 149 b 353 -17 604 33 517 -17 b 42 417 104 -17 42 69 b 367 850 42 764 107 850 b 638 676 529 850 614 797 l 638 833 l 894 833 l 894 -278 m 319 417 b 478 206 319 226 335 206 b 631 296 576 206 631 236 l 631 468 b 464 628 631 581 579 628 b 319 417 333 628 319 607 "},"r":{"ha":694,"x_min":0,"x_max":0,"o":"m 333 833 l 333 679 b 571 833 357 786 432 833 l 667 833 l 667 597 l 479 600 b 333 468 376 601 333 561 l 333 0 l 69 0 l 69 833 "},"ŕ":{"ha":694,"x_min":0,"x_max":0,"o":"m 333 833 l 333 679 b 571 833 357 786 432 833 l 667 833 l 667 597 l 479 600 b 333 468 376 601 333 561 l 333 0 l 69 0 l 69 833 m 414 1113 l 692 1113 l 483 917 l 317 917 "},"ř":{"ha":694,"x_min":0,"x_max":0,"o":"m 333 833 l 333 679 b 571 833 357 786 432 833 l 667 833 l 667 597 l 479 600 b 333 468 376 601 333 561 l 333 0 l 69 0 l 69 833 m 289 1111 l 410 1032 l 418 1032 l 536 1111 l 690 1111 l 500 917 l 325 917 l 135 1111 "},"ŗ":{"ha":694,"x_min":0,"x_max":0,"o":"m 333 833 l 333 679 b 571 833 357 786 432 833 l 667 833 l 667 597 l 479 600 b 333 468 376 601 333 561 l 333 0 l 69 0 l 69 833 m 340 -56 l 604 -56 l 604 -114 b 381 -294 604 -260 556 -294 l 342 -294 l 342 -231 b 474 -189 433 -231 465 -222 l 340 -189 "},"s":{"ha":932,"x_min":0,"x_max":0,"o":"m 306 261 b 463 178 306 186 321 178 b 613 242 597 178 613 185 b 415 331 613 283 574 301 b 61 599 132 386 61 439 b 469 850 61 800 143 850 b 869 568 789 850 869 793 l 869 543 l 606 543 l 606 568 b 469 656 606 647 592 656 b 339 590 351 656 339 649 b 454 525 339 551 363 539 b 890 222 803 468 890 407 b 469 -17 890 31 806 -17 b 42 261 128 -17 42 39 l 42 279 l 306 279 l 306 261 "},"ś":{"ha":932,"x_min":0,"x_max":0,"o":"m 306 261 b 463 178 306 186 321 178 b 613 242 597 178 613 185 b 415 331 613 283 574 301 b 61 599 132 386 61 439 b 469 850 61 800 143 850 b 869 568 789 850 869 793 l 869 543 l 606 543 l 606 568 b 469 656 606 647 592 656 b 339 590 351 656 339 649 b 454 525 339 551 363 539 b 890 222 803 468 890 407 b 469 -17 890 31 806 -17 b 42 261 128 -17 42 39 l 42 279 l 306 279 l 306 261 m 469 1113 l 747 1113 l 539 917 l 372 917 "},"š":{"ha":932,"x_min":0,"x_max":0,"o":"m 306 261 b 463 178 306 186 321 178 b 613 242 597 178 613 185 b 415 331 613 283 574 301 b 61 599 132 386 61 439 b 469 850 61 800 143 850 b 869 568 789 850 869 793 l 869 543 l 606 543 l 606 568 b 469 656 606 647 592 656 b 339 590 351 656 339 649 b 454 525 339 551 363 539 b 890 222 803 468 890 407 b 469 -17 890 31 806 -17 b 42 261 128 -17 42 39 l 42 279 l 306 279 l 306 261 m 344 1111 l 465 1032 l 474 1032 l 592 1111 l 746 1111 l 556 917 l 381 917 l 190 1111 "},"ş":{"ha":932,"x_min":0,"x_max":0,"o":"m 306 261 b 463 178 306 186 321 178 b 613 242 597 178 613 185 b 415 331 613 283 574 301 b 61 599 132 386 61 439 b 469 850 61 800 143 850 b 869 568 789 850 869 793 l 869 543 l 606 543 l 606 568 b 469 656 606 647 592 656 b 339 590 351 656 339 649 b 454 525 339 551 363 539 b 890 222 803 468 890 407 b 500 -17 890 36 811 -14 l 478 -54 b 617 -172 585 -65 617 -103 b 393 -294 617 -262 568 -294 l 354 -294 l 354 -231 b 489 -179 464 -231 489 -218 l 489 -165 b 354 -114 489 -126 464 -114 l 354 -50 l 429 -17 b 42 261 121 -12 42 47 l 42 279 l 306 279 l 306 261 "},"ß":{"ha":1053,"x_min":0,"x_max":0,"o":"m 521 933 b 347 832 364 933 347 924 l 347 0 l 69 0 l 69 831 b 521 1128 69 1068 160 1128 b 958 828 871 1128 958 1068 b 749 578 958 678 896 601 b 997 285 922 561 997 471 b 706 0 997 57 939 0 l 475 0 l 475 250 l 589 250 b 706 357 694 250 706 261 b 589 465 706 454 694 465 l 479 465 l 479 688 l 578 688 b 667 804 658 688 667 699 b 521 933 667 921 653 933 "},"t":{"ha":708,"x_min":0,"x_max":0,"o":"m 639 0 l 472 0 b 139 281 206 0 139 56 l 139 611 l 56 611 l 56 833 l 153 833 l 153 1011 l 403 1011 l 403 833 l 625 833 l 625 611 l 403 611 l 403 349 b 499 236 403 247 413 236 l 639 236 "},"ť":{"ha":1083,"x_min":0,"x_max":0,"o":"m 653 0 l 486 0 b 153 281 219 0 153 56 l 153 611 l 69 611 l 69 833 l 167 833 l 167 1011 l 417 1011 l 417 833 l 639 833 l 639 611 l 417 611 l 417 349 b 513 236 417 247 426 236 l 653 236 m 792 1111 l 1028 1111 l 917 721 l 792 721 "},"ţ":{"ha":708,"x_min":0,"x_max":0,"o":"m 639 0 l 472 0 l 443 0 l 410 -54 b 549 -172 517 -65 549 -103 b 325 -294 549 -262 500 -294 l 286 -294 l 286 -231 b 421 -179 396 -231 421 -218 l 421 -165 b 286 -114 421 -126 396 -114 l 286 -50 l 401 1 l 406 1 b 139 281 194 11 139 75 l 139 611 l 56 611 l 56 833 l 153 833 l 153 1011 l 403 1011 l 403 833 l 625 833 l 625 611 l 403 611 l 403 349 b 499 236 403 247 413 236 l 639 236 "},"u":{"ha":901,"x_min":0,"x_max":0,"o":"m 568 0 l 568 131 b 331 -17 543 29 468 -17 b 57 294 111 -17 57 46 l 56 833 l 319 833 l 319 357 b 443 206 319 221 332 206 b 567 351 529 206 567 249 l 568 833 l 832 833 l 832 0 "},"ú":{"ha":901,"x_min":0,"x_max":0,"o":"m 568 0 l 568 131 b 331 -17 543 29 468 -17 b 57 294 111 -17 57 46 l 56 833 l 319 833 l 319 357 b 443 206 319 221 332 206 b 567 351 529 206 567 249 l 568 833 l 832 833 l 832 0 m 444 1113 l 722 1113 l 514 917 l 347 917 "},"û":{"ha":901,"x_min":0,"x_max":0,"o":"m 568 0 l 568 131 b 331 -17 543 29 468 -17 b 57 294 111 -17 57 46 l 56 833 l 319 833 l 319 357 b 443 206 319 221 332 206 b 567 351 529 206 567 249 l 568 833 l 832 833 l 832 0 m 356 1111 l 531 1111 l 721 917 l 567 917 l 449 996 l 440 996 l 319 917 l 165 917 "},"ü":{"ha":901,"x_min":0,"x_max":0,"o":"m 568 0 l 568 131 b 331 -17 543 29 468 -17 b 57 294 111 -17 57 46 l 56 833 l 319 833 l 319 357 b 443 206 319 221 332 206 b 567 351 529 206 567 249 l 568 833 l 832 833 l 832 0 m 181 1111 l 403 1111 l 403 917 l 181 917 m 486 1111 l 708 1111 l 708 917 l 486 917 "},"ù":{"ha":901,"x_min":0,"x_max":0,"o":"m 568 0 l 568 131 b 331 -17 543 29 468 -17 b 57 294 111 -17 57 46 l 56 833 l 319 833 l 319 357 b 443 206 319 221 332 206 b 567 351 529 206 567 249 l 568 833 l 832 833 l 832 0 m 444 1113 l 542 917 l 375 917 l 167 1113 "},"ű":{"ha":901,"x_min":0,"x_max":0,"o":"m 568 0 l 568 131 b 331 -17 543 29 468 -17 b 57 294 111 -17 57 46 l 56 833 l 319 833 l 319 357 b 443 206 319 221 332 206 b 567 351 529 206 567 249 l 568 833 l 832 833 l 832 0 m 343 1113 l 551 1113 l 399 917 l 246 917 m 607 1113 l 815 1113 l 663 917 l 510 917 "},"ū":{"ha":901,"x_min":0,"x_max":0,"o":"m 568 0 l 568 131 b 331 -17 543 29 468 -17 b 57 294 111 -17 57 46 l 56 833 l 319 833 l 319 357 b 443 206 319 221 332 206 b 567 351 529 206 567 249 l 568 833 l 832 833 l 832 0 m 222 1056 l 667 1056 l 667 931 l 222 931 "},"ų":{"ha":901,"x_min":0,"x_max":0,"o":"m 832 0 b 711 -179 744 -86 711 -135 b 804 -214 711 -221 736 -231 l 804 -278 b 715 -294 783 -290 763 -294 b 583 -187 624 -294 583 -265 b 768 0 583 -129 633 -79 l 568 0 l 568 131 b 331 -17 543 29 468 -17 b 57 294 111 -17 57 46 l 56 833 l 319 833 l 319 357 b 443 206 319 221 332 206 b 567 351 529 206 567 249 l 568 833 l 832 833 l 832 0 "},"ů":{"ha":901,"x_min":0,"x_max":0,"o":"m 568 0 l 568 131 b 331 -17 543 29 468 -17 b 57 294 111 -17 57 46 l 56 833 l 319 833 l 319 357 b 443 206 319 221 332 206 b 567 351 529 206 567 249 l 568 833 l 832 833 l 832 0 m 285 1024 b 446 1128 285 1106 328 1128 b 604 1024 561 1128 604 1106 b 446 917 604 942 561 917 b 285 1024 328 917 285 942 m 382 1022 b 444 967 382 975 390 967 b 507 1022 499 967 507 975 b 444 1078 507 1069 499 1078 b 382 1022 390 1078 382 1069 "},"v":{"ha":906,"x_min":0,"x_max":0,"o":"m 644 0 l 238 0 l 7 833 l 281 833 l 446 194 l 454 194 l 636 833 l 899 833 "},"w":{"ha":1379,"x_min":0,"x_max":0,"o":"m 1006 181 l 1014 181 l 1132 833 l 1372 833 l 1208 0 l 792 0 l 690 639 l 682 639 l 596 0 l 176 0 l 7 833 l 263 833 l 383 181 l 392 181 l 476 833 l 904 833 "},"ẃ":{"ha":1379,"x_min":0,"x_max":0,"o":"m 1006 181 l 1014 181 l 1132 833 l 1372 833 l 1208 0 l 792 0 l 690 639 l 682 639 l 596 0 l 176 0 l 7 833 l 263 833 l 383 181 l 392 181 l 476 833 l 904 833 m 690 1113 l 968 1113 l 760 917 l 593 917 "},"ŵ":{"ha":1379,"x_min":0,"x_max":0,"o":"m 1006 181 l 1014 181 l 1132 833 l 1372 833 l 1208 0 l 792 0 l 690 639 l 682 639 l 596 0 l 176 0 l 7 833 l 263 833 l 383 181 l 392 181 l 476 833 l 904 833 m 601 1111 l 776 1111 l 967 917 l 813 917 l 694 996 l 686 996 l 565 917 l 411 917 "},"ẅ":{"ha":1379,"x_min":0,"x_max":0,"o":"m 1006 181 l 1014 181 l 1132 833 l 1372 833 l 1208 0 l 792 0 l 690 639 l 682 639 l 596 0 l 176 0 l 7 833 l 263 833 l 383 181 l 392 181 l 476 833 l 904 833 m 426 1111 l 649 1111 l 649 917 l 426 917 m 732 1111 l 954 1111 l 954 917 l 732 917 "},"ẁ":{"ha":1379,"x_min":0,"x_max":0,"o":"m 1006 181 l 1014 181 l 1132 833 l 1372 833 l 1208 0 l 792 0 l 690 639 l 682 639 l 596 0 l 176 0 l 7 833 l 263 833 l 383 181 l 392 181 l 476 833 l 904 833 m 690 1113 l 788 917 l 621 917 l 413 1113 "},"x":{"ha":914,"x_min":0,"x_max":0,"o":"m 307 833 l 438 565 l 446 565 l 581 833 l 857 833 l 610 431 l 907 0 l 610 0 l 443 296 l 435 296 l 285 0 l 7 0 l 269 428 l 19 833 "},"y":{"ha":883,"x_min":0,"x_max":0,"o":"m 635 -65 b 296 -278 589 -235 518 -278 l 106 -278 l 106 -56 l 263 -56 b 397 4 368 -56 382 -50 l 404 28 l 238 28 l 7 833 l 282 833 l 450 217 l 458 217 l 618 833 l 876 833 l 635 -65 "},"ý":{"ha":883,"x_min":0,"x_max":0,"o":"m 635 -65 b 296 -278 589 -235 518 -278 l 106 -278 l 106 -56 l 263 -56 b 397 4 368 -56 382 -50 l 404 28 l 238 28 l 7 833 l 282 833 l 450 217 l 458 217 l 618 833 l 876 833 l 635 -65 m 454 1113 l 732 1113 l 524 917 l 357 917 "},"ŷ":{"ha":883,"x_min":0,"x_max":0,"o":"m 635 -65 b 296 -278 589 -235 518 -278 l 106 -278 l 106 -56 l 263 -56 b 397 4 368 -56 382 -50 l 404 28 l 238 28 l 7 833 l 282 833 l 450 217 l 458 217 l 618 833 l 876 833 l 635 -65 m 365 1111 l 540 1111 l 731 917 l 576 917 l 458 996 l 450 996 l 329 917 l 175 917 "},"ÿ":{"ha":883,"x_min":0,"x_max":0,"o":"m 635 -65 b 296 -278 589 -235 518 -278 l 106 -278 l 106 -56 l 263 -56 b 397 4 368 -56 382 -50 l 404 28 l 238 28 l 7 833 l 282 833 l 450 217 l 458 217 l 618 833 l 876 833 l 635 -65 m 190 1111 l 413 1111 l 413 917 l 190 917 m 496 1111 l 718 1111 l 718 917 l 496 917 "},"ỳ":{"ha":883,"x_min":0,"x_max":0,"o":"m 635 -65 b 296 -278 589 -235 518 -278 l 106 -278 l 106 -56 l 263 -56 b 397 4 368 -56 382 -50 l 404 28 l 238 28 l 7 833 l 282 833 l 450 217 l 458 217 l 618 833 l 876 833 l 635 -65 m 454 1113 l 551 917 l 385 917 l 176 1113 "},"z":{"ha":953,"x_min":0,"x_max":0,"o":"m 875 833 l 875 629 l 458 236 l 897 236 l 897 0 l 56 0 l 56 201 l 476 597 l 81 597 l 81 833 "},"ź":{"ha":953,"x_min":0,"x_max":0,"o":"m 875 833 l 875 629 l 458 236 l 897 236 l 897 0 l 56 0 l 56 201 l 476 597 l 81 597 l 81 833 m 492 1113 l 769 1113 l 561 917 l 394 917 "},"ž":{"ha":953,"x_min":0,"x_max":0,"o":"m 875 833 l 875 629 l 458 236 l 897 236 l 897 0 l 56 0 l 56 201 l 476 597 l 81 597 l 81 833 m 367 1111 l 488 1032 l 496 1032 l 614 1111 l 768 1111 l 578 917 l 403 917 l 213 1111 "},"ż":{"ha":953,"x_min":0,"x_max":0,"o":"m 875 833 l 875 629 l 458 236 l 897 236 l 897 0 l 56 0 l 56 201 l 476 597 l 81 597 l 81 833 m 353 1111 l 631 1111 l 631 917 l 353 917 "},"ﬁ":{"ha":1014,"x_min":0,"x_max":0,"o":"m 938 833 l 938 0 l 674 0 l 674 833 m 42 833 l 125 833 b 458 1111 125 1056 193 1111 l 944 1111 l 944 917 l 471 917 b 389 842 397 917 389 910 l 389 833 l 569 833 l 569 611 l 389 611 l 389 0 l 125 0 l 125 611 l 42 611 "},"ﬂ":{"ha":1082,"x_min":0,"x_max":0,"o":"m 1040 0 l 889 0 b 667 228 710 0 665 46 l 667 917 l 471 917 b 389 842 397 917 389 910 l 389 833 l 569 833 l 569 611 l 389 611 l 389 0 l 125 0 l 125 611 l 42 611 l 42 833 l 125 833 b 458 1111 125 1056 193 1111 l 931 1111 l 931 307 b 1040 236 931 243 942 236 "},"ª":{"ha":550,"x_min":0,"x_max":0,"o":"m 285 1128 b 460 997 424 1128 460 1101 l 460 744 l 340 744 l 340 801 b 236 736 328 760 294 738 b 90 853 119 735 90 757 b 235 968 90 944 119 968 l 340 968 l 340 989 b 285 1044 340 1035 335 1044 b 222 990 226 1044 219 1035 l 103 990 l 103 1006 b 285 1128 103 1103 139 1128 m 69 661 l 481 661 l 481 578 l 69 578 m 215 851 b 285 822 215 824 222 822 b 340 864 324 824 340 836 l 340 885 l 285 885 b 215 851 222 885 215 876 "},"º":{"ha":550,"x_min":0,"x_max":0,"o":"m 276 1039 b 206 932 211 1039 206 1024 b 276 826 206 840 211 826 b 347 932 340 826 347 840 b 276 1039 347 1024 340 1039 m 69 661 l 481 661 l 481 578 l 69 578 m 81 932 b 276 1128 81 1089 119 1128 b 472 932 432 1128 472 1089 b 276 736 472 776 432 736 b 81 932 119 736 81 776 "},"¹":{"ha":639,"x_min":0,"x_max":0,"o":"m 306 721 l 42 721 l 42 915 l 168 915 b 319 1083 289 915 319 942 l 569 1083 l 569 0 l 306 0 "},"²":{"ha":1004,"x_min":0,"x_max":0,"o":"m 50 0 l 50 194 l 529 599 b 643 769 621 675 643 710 b 486 864 643 853 628 864 b 347 725 361 864 347 849 l 42 725 b 488 1100 42 1025 142 1100 b 926 822 847 1100 935 1044 b 828 508 922 667 940 606 l 526 250 l 949 250 l 949 0 "},"³":{"ha":1075,"x_min":0,"x_max":0,"o":"m 514 206 b 728 325 694 206 728 225 b 514 442 728 424 694 442 l 346 442 l 346 664 l 522 664 b 708 772 679 664 708 681 b 522 878 708 861 679 878 b 339 788 368 878 339 868 l 75 788 b 522 1100 75 1038 164 1100 b 972 808 882 1100 972 1042 b 813 553 972 651 924 572 b 1006 281 946 535 1006 450 b 522 -17 1006 43 908 -17 b 56 317 149 -17 56 50 l 333 317 b 514 206 333 217 351 206 "},"⁄":{"ha":808,"x_min":0,"x_max":0,"o":"m 697 1111 l 864 1111 l 56 -278 l -111 -278 "}," ":{"ha":417,"x_min":0,"x_max":0,"o":""},".":{"ha":486,"x_min":0,"x_max":0,"o":"m 403 264 l 403 0 l 83 0 l 83 264 "},",":{"ha":486,"x_min":0,"x_max":0,"o":"m 403 264 l 403 94 b 179 -133 403 -85 354 -133 l 85 -133 l 85 -56 b 274 0 228 -56 267 -46 l 83 0 l 83 264 "},":":{"ha":486,"x_min":0,"x_max":0,"o":"m 403 819 l 403 556 l 83 556 l 83 819 m 83 264 l 403 264 l 403 0 l 83 0 "},";":{"ha":500,"x_min":0,"x_max":0,"o":"m 403 819 l 403 556 l 83 556 l 83 819 m 97 264 l 417 264 l 417 94 b 193 -133 417 -85 368 -133 l 99 -133 l 99 -56 b 288 0 242 -56 281 -46 l 97 0 "},"…":{"ha":486,"x_min":0,"x_max":0,"o":"m 403 264 l 403 0 l 83 0 l 83 264 "},"!":{"ha":486,"x_min":0,"x_max":0,"o":"m 403 264 l 403 0 l 83 0 l 83 264 m 396 1111 l 381 753 l 354 389 l 132 389 l 103 746 l 90 1111 "},"¡":{"ha":486,"x_min":0,"x_max":0,"o":"m 83 833 l 403 833 l 403 569 l 83 569 m 103 88 l 132 444 l 354 444 l 381 81 l 396 -278 l 90 -278 "},"?":{"ha":1092,"x_min":0,"x_max":0,"o":"m 685 264 l 685 0 l 365 0 l 365 264 m 83 736 b 508 1088 83 1017 168 1088 l 572 1088 b 1008 821 921 1088 1008 1035 b 815 550 1008 636 969 582 b 664 389 679 522 664 506 l 386 389 b 522 668 386 576 414 632 b 703 815 667 714 703 743 b 539 893 703 885 686 893 b 389 736 404 893 389 878 l 83 736 "},"¿":{"ha":1050,"x_min":0,"x_max":0,"o":"m 365 529 l 365 793 l 685 793 l 685 529 m 42 -28 b 235 243 42 157 81 211 b 386 404 371 271 386 288 l 664 404 b 528 125 664 217 636 161 b 347 -22 383 79 347 50 b 511 -100 347 -92 364 -100 b 661 57 646 -100 661 -85 l 967 57 b 542 -294 967 -224 882 -294 l 478 -294 b 42 -28 129 -294 42 -242 "},"·":{"ha":486,"x_min":0,"x_max":0,"o":"m 403 567 l 403 303 l 83 303 l 83 567 "},"•":{"ha":556,"x_min":0,"x_max":0,"o":"m 279 243 b 83 424 122 243 83 279 b 279 604 83 568 122 604 b 472 424 433 604 472 568 b 279 243 472 279 433 243 "},"*":{"ha":714,"x_min":0,"x_max":0,"o":"m 533 1069 l 631 918 l 465 876 l 631 835 l 533 683 l 411 792 l 454 642 l 260 642 l 303 792 l 179 683 l 83 835 l 249 876 l 83 918 l 179 1069 l 303 961 l 260 1111 l 454 1111 l 411 961 "},"#":{"ha":1333,"x_min":0,"x_max":0,"o":"m 275 236 l 83 236 l 125 431 l 321 431 l 374 653 l 181 653 l 222 847 l 419 847 l 475 1083 l 669 1083 l 614 847 l 836 847 l 892 1083 l 1086 1083 l 1031 847 l 1250 847 l 1208 653 l 985 653 l 932 431 l 1153 431 l 1111 236 l 886 236 l 831 0 l 636 0 l 692 236 l 469 236 l 414 0 l 219 0 m 738 431 l 790 653 l 568 653 l 515 431 "},"/":{"ha":778,"x_min":0,"x_max":0,"o":"m 528 1111 l 694 1111 l 250 -278 l 83 -278 "},"\\":{"ha":778,"x_min":0,"x_max":0,"o":"m 528 -278 l 83 1111 l 250 1111 l 694 -278 "},"-":{"ha":722,"x_min":0,"x_max":0,"o":"m 639 553 l 639 317 l 83 317 l 83 553 "},"–":{"ha":982,"x_min":0,"x_max":0,"o":"m 899 553 l 899 317 l 83 317 l 83 553 "},"—":{"ha":1481,"x_min":0,"x_max":0,"o":"m 1397 553 l 1397 317 l 83 317 l 83 553 "},"_":{"ha":982,"x_min":0,"x_max":0,"o":"m 899 -42 l 899 -236 l 83 -236 l 83 -42 "},"(":{"ha":567,"x_min":0,"x_max":0,"o":"m 483 -294 b 83 417 203 -294 83 -81 b 483 1128 83 914 203 1128 l 483 1003 b 306 417 324 1003 306 944 b 483 -169 306 -111 324 -169 l 483 -294 "},")":{"ha":567,"x_min":0,"x_max":0,"o":"m 83 -169 b 261 417 243 -169 261 -111 b 83 1003 261 944 243 1003 l 83 1128 b 483 417 364 1128 483 914 b 83 -294 483 -81 364 -294 l 83 -169 "},"{":{"ha":625,"x_min":0,"x_max":0,"o":"m 542 -294 b 171 251 251 -294 178 -185 b 83 369 169 358 161 369 l 83 494 b 169 613 158 494 167 506 b 542 1128 179 1025 253 1128 l 542 1003 b 365 646 386 1003 368 967 b 254 475 364 526 331 475 l 254 392 b 365 219 331 392 364 340 b 542 -169 368 -131 386 -169 l 542 -294 "},"}":{"ha":625,"x_min":0,"x_max":0,"o":"m 83 -169 b 260 219 239 -169 257 -131 b 371 392 261 340 294 392 l 371 475 b 260 646 294 475 261 526 b 83 1003 257 967 239 1003 l 83 1128 b 456 613 372 1128 446 1025 b 542 494 458 506 467 494 l 542 369 b 454 251 464 369 456 358 b 83 -294 447 -185 374 -294 l 83 -169 "},"[":{"ha":472,"x_min":0,"x_max":0,"o":"m 389 986 l 292 986 l 292 -153 l 389 -153 l 389 -278 l 83 -278 l 83 1111 l 389 1111 "},"]":{"ha":472,"x_min":0,"x_max":0,"o":"m 389 -278 l 83 -278 l 83 -153 l 181 -153 l 181 986 l 83 986 l 83 1111 l 389 1111 "},"‚":{"ha":486,"x_min":0,"x_max":0,"o":"m 403 264 l 403 94 b 179 -133 403 -85 354 -133 l 85 -133 l 85 -56 b 274 0 228 -56 267 -46 l 83 0 l 83 264 "},"„":{"ha":972,"x_min":0,"x_max":0,"o":"m 403 264 l 403 94 b 179 -133 403 -85 354 -133 l 85 -133 l 85 -56 b 274 0 228 -56 267 -46 l 83 0 l 83 264 m 569 264 l 889 264 l 889 94 b 665 -133 889 -85 840 -133 l 571 -133 l 571 -56 b 760 0 714 -56 753 -46 l 569 0 "},"“":{"ha":917,"x_min":0,"x_max":0,"o":"m 514 708 l 514 878 b 738 1106 514 1057 563 1106 l 832 1106 l 832 1028 b 643 972 689 1028 650 1018 l 833 972 l 833 708 m 28 878 b 251 1106 28 1057 76 1106 l 346 1106 l 346 1028 b 157 972 203 1028 164 1018 l 347 972 l 347 708 l 28 708 "},"”":{"ha":917,"x_min":0,"x_max":0,"o":"m 403 1111 l 403 942 b 179 714 403 763 354 714 l 85 714 l 85 792 b 274 847 228 792 267 801 l 83 847 l 83 1111 m 569 1111 l 889 1111 l 889 942 b 665 714 889 763 840 714 l 571 714 l 571 792 b 760 847 714 792 753 801 l 569 847 "},"‘":{"ha":486,"x_min":0,"x_max":0,"o":"m 83 708 l 83 878 b 307 1106 83 1057 132 1106 l 401 1106 l 401 1028 b 213 972 258 1028 219 1018 l 403 972 l 403 708 "},"’":{"ha":486,"x_min":0,"x_max":0,"o":"m 403 1111 l 403 942 b 179 714 403 763 354 714 l 85 714 l 85 792 b 274 847 228 792 267 801 l 83 847 l 83 1111 "},"«":{"ha":806,"x_min":0,"x_max":0,"o":"m 83 492 l 389 719 l 389 539 l 226 421 l 226 413 l 389 292 l 389 111 l 83 339 m 417 492 l 722 719 l 722 539 l 560 421 l 560 413 l 722 292 l 722 111 l 417 339 "},"»":{"ha":806,"x_min":0,"x_max":0,"o":"m 417 111 l 417 292 l 579 413 l 579 421 l 417 539 l 417 719 l 722 492 l 722 339 m 83 292 l 246 413 l 246 421 l 83 539 l 83 719 l 389 492 l 389 339 l 83 111 "},"‹":{"ha":472,"x_min":0,"x_max":0,"o":"m 83 492 l 389 719 l 389 539 l 226 421 l 226 413 l 389 292 l 389 111 l 83 339 "},"›":{"ha":472,"x_min":0,"x_max":0,"o":"m 83 111 l 83 292 l 246 413 l 246 421 l 83 539 l 83 719 l 389 492 l 389 339 "},"\"":{"ha":847,"x_min":0,"x_max":0,"o":"m 83 722 l 250 722 l 431 1113 l 153 1113 m 583 722 l 764 1113 l 486 1113 l 417 722 "},"'":{"ha":514,"x_min":0,"x_max":0,"o":"m 83 722 l 250 722 l 431 1113 l 153 1113 "},"ƒ":{"ha":864,"x_min":0,"x_max":0,"o":"m 656 917 b 561 842 582 917 572 910 l 560 833 l 756 833 l 717 611 l 521 611 l 415 3 b 35 -278 376 -222 300 -278 l 7 -278 l 47 -42 b 151 13 115 -42 138 -32 l 256 611 l 147 611 l 186 833 l 294 833 b 676 1111 333 1056 411 1111 l 857 1111 l 824 917 l 656 917 "},"@":{"ha":1163,"x_min":0,"x_max":0,"o":"m 835 740 l 835 368 l 900 368 b 968 507 965 369 972 383 b 600 888 956 850 918 888 b 203 493 243 888 203 849 b 536 125 203 161 236 125 l 776 125 l 776 0 l 536 0 b 42 507 140 0 42 101 b 600 1013 42 911 153 1013 b 1121 507 1017 1013 1121 911 b 894 243 1121 322 1053 243 l 685 243 l 685 371 b 521 235 671 275 621 235 b 332 507 369 235 332 289 b 513 751 332 703 368 751 b 679 649 613 751 663 721 l 679 740 m 497 507 b 588 372 497 386 506 372 b 679 431 651 372 679 390 l 679 535 b 588 614 679 590 651 614 b 497 507 506 614 497 603 "},"&":{"ha":1132,"x_min":0,"x_max":0,"o":"m 1076 0 l 1007 0 b 735 153 876 0 788 49 b 442 -17 689 36 593 -17 b 56 276 154 -17 56 42 b 263 564 56 456 118 546 b 97 799 147 582 97 656 b 518 1100 97 1040 182 1100 b 940 826 856 1100 940 1046 l 649 826 b 518 878 649 872 636 878 b 389 779 401 878 389 868 b 476 675 389 701 418 681 l 646 675 l 646 731 l 924 731 l 924 675 l 1036 675 l 1036 468 l 936 468 l 936 347 b 1033 236 938 247 947 236 l 1076 236 m 361 343 b 518 219 361 232 383 219 b 646 343 607 219 646 257 l 646 467 l 476 467 b 361 343 396 467 361 442 "},"¶":{"ha":1356,"x_min":0,"x_max":0,"o":"m 897 0 l 633 0 l 633 285 l 364 285 b 42 690 106 299 42 381 b 389 1083 42 1004 111 1083 l 897 1083 m 319 686 b 464 521 319 538 333 521 l 633 521 l 633 847 l 464 847 b 319 686 333 847 319 831 m 1022 1083 l 1286 1083 l 1286 0 l 1022 0 "},"§":{"ha":968,"x_min":0,"x_max":0,"o":"m 635 461 b 471 558 635 513 607 535 l 413 568 b 333 488 360 554 332 517 b 497 390 333 436 361 414 l 556 381 b 635 461 608 394 636 432 m 56 446 b 246 603 56 554 104 601 b 199 618 229 607 213 613 b 56 835 85 661 56 724 b 465 1100 56 1047 138 1100 b 892 779 807 1100 892 1040 l 628 779 b 478 919 628 908 613 919 b 333 846 347 919 333 913 b 463 761 333 792 372 775 b 747 701 613 739 676 722 b 913 503 881 663 913 588 b 722 346 913 394 860 347 b 769 331 739 342 756 336 b 913 114 883 288 913 225 b 503 -151 913 -99 831 -151 b 76 169 161 -151 76 -92 l 340 169 b 490 29 340 40 356 29 b 635 103 621 29 635 36 b 506 188 635 157 596 174 b 221 247 356 210 292 226 b 56 446 88 286 56 361 "},"©":{"ha":1264,"x_min":0,"x_max":0,"o":"m 632 933 b 215 500 257 933 215 890 b 632 67 215 110 257 67 b 1049 500 1007 67 1049 110 b 632 933 1049 890 1007 933 m 42 500 b 632 1058 42 947 160 1058 b 1222 500 1104 1058 1222 947 b 632 -58 1222 53 1104 -58 b 42 500 160 -58 42 53 m 321 504 b 636 807 321 746 383 807 b 939 574 878 807 939 760 l 939 539 l 779 540 l 779 576 b 636 682 774 671 758 682 b 482 504 497 682 482 664 b 636 326 482 344 497 326 b 779 435 758 326 774 338 l 779 469 l 939 471 l 939 438 b 636 201 939 249 878 201 b 321 504 383 201 321 263 "},"®":{"ha":1069,"x_min":0,"x_max":0,"o":"m 535 1017 b 163 629 200 1017 163 978 b 535 242 163 281 200 242 b 907 629 869 242 907 281 b 535 1017 907 978 869 1017 m 7 629 b 535 1128 7 1028 113 1128 b 1063 629 957 1128 1063 1028 b 535 129 1063 229 957 129 b 7 629 113 129 7 229 m 325 883 l 600 883 b 760 744 728 883 760 856 b 665 618 760 665 731 626 b 760 521 728 611 760 582 l 760 403 l 625 403 l 625 514 b 550 572 625 567 618 572 l 454 572 l 454 403 l 325 403 m 567 671 b 631 725 625 671 631 676 b 567 778 631 772 625 778 l 454 778 l 454 671 "},"™":{"ha":867,"x_min":0,"x_max":0,"o":"m 160 1028 l 61 1028 l 61 1103 l 349 1103 l 349 1028 l 247 1028 l 247 778 l 160 778 m 379 1103 l 538 1103 l 586 861 l 590 861 l 639 1103 l 793 1103 l 793 778 l 706 778 l 706 1019 l 703 1019 l 653 778 l 518 778 l 469 1019 l 467 1019 l 467 778 l 379 778 "},"°":{"ha":444,"x_min":0,"x_max":0,"o":"m 224 835 b 83 968 121 835 83 871 b 224 1099 83 1063 121 1099 b 361 968 324 1099 361 1063 b 224 835 361 871 324 835 m 153 967 b 222 885 153 907 172 885 b 292 967 272 885 292 907 b 222 1049 292 1026 272 1049 b 153 967 172 1049 153 1026 "},"|":{"ha":361,"x_min":0,"x_max":0,"o":"m 83 1056 l 278 1056 l 278 -278 l 83 -278 "},"¦":{"ha":361,"x_min":0,"x_max":0,"o":"m 83 1056 l 278 1056 l 278 451 l 83 451 m 83 326 l 278 326 l 278 -278 l 83 -278 "},"†":{"ha":771,"x_min":0,"x_max":0,"o":"m 311 715 l 83 696 l 83 890 l 308 868 l 288 1111 l 482 1111 l 461 868 l 688 889 l 688 694 l 458 715 l 482 313 l 390 81 l 382 81 l 288 313 "},"‡":{"ha":771,"x_min":0,"x_max":0,"o":"m 308 285 l 83 263 l 83 457 l 315 438 l 315 715 l 83 696 l 83 890 l 308 868 l 288 1111 l 482 1111 l 461 868 l 688 889 l 688 694 l 454 717 l 454 436 l 688 458 l 688 264 l 461 285 l 482 42 l 288 42 "},"¢":{"ha":940,"x_min":0,"x_max":0,"o":"m 899 328 b 567 29 892 111 824 42 l 567 -194 l 372 -194 l 372 31 b 42 417 111 47 42 140 b 372 803 42 693 111 786 l 372 1056 l 567 1056 l 567 804 b 899 510 822 792 892 724 l 635 510 b 478 635 626 622 611 635 b 307 417 324 635 307 613 b 478 199 307 221 324 199 b 635 328 610 199 625 211 l 899 328 "},"¤":{"ha":1031,"x_min":0,"x_max":0,"o":"m 517 714 b 338 514 388 714 338 661 b 517 314 338 367 388 314 b 696 514 646 314 696 367 b 517 714 696 661 646 714 m 188 324 b 157 514 167 372 157 436 b 188 704 157 592 167 656 l 83 808 l 221 946 l 331 836 b 517 861 381 853 442 861 b 701 838 590 861 651 854 l 810 946 l 947 808 l 846 707 b 876 514 867 657 876 593 b 846 321 876 435 867 371 l 947 219 l 810 82 l 701 190 b 517 167 651 174 590 167 b 331 192 442 167 381 175 l 221 82 l 83 219 "},"$":{"ha":932,"x_min":0,"x_max":0,"o":"m 306 361 b 463 250 306 261 322 250 b 613 328 596 250 613 258 b 463 421 613 376 585 399 b 204 482 414 431 288 450 b 61 699 90 525 61 588 b 386 963 61 894 131 954 l 386 1128 l 581 1128 l 581 960 b 869 668 807 944 869 871 l 869 643 l 606 643 l 606 668 b 469 783 606 772 590 783 b 339 710 353 783 339 776 b 454 625 339 656 378 639 b 725 565 590 603 654 586 b 890 322 858 526 890 451 b 581 72 890 146 824 85 l 581 -122 l 386 -122 l 386 71 b 42 361 115 79 42 146 l 42 379 l 306 379 l 306 361 "},"€":{"ha":1321,"x_min":0,"x_max":0,"o":"m 183 726 b 729 1100 218 1021 354 1100 b 1279 710 1172 1100 1282 1006 l 974 710 b 729 864 976 840 951 864 b 490 726 567 864 510 847 l 842 726 l 842 601 l 481 601 l 481 542 b 481 490 481 524 481 507 l 842 490 l 842 365 l 489 365 b 729 219 507 238 563 219 b 974 376 951 219 976 243 l 1279 376 b 729 -17 1282 79 1172 -17 b 183 365 351 -17 215 64 l 42 365 l 42 490 l 175 490 l 175 542 b 176 601 175 563 175 582 l 42 601 l 42 726 "},"£":{"ha":961,"x_min":0,"x_max":0,"o":"m 542 921 b 447 833 457 921 447 913 l 447 735 l 772 735 l 772 610 l 447 610 l 447 499 l 772 499 l 772 374 l 447 374 l 447 281 l 446 236 l 919 236 l 919 0 l 83 0 l 83 194 l 115 194 b 183 251 172 194 183 203 l 183 374 l 56 374 l 56 499 l 183 499 l 183 610 l 56 610 l 56 735 l 183 735 l 183 835 b 517 1115 183 1060 250 1115 l 906 1115 l 906 921 l 542 921 "},"¥":{"ha":1193,"x_min":0,"x_max":0,"o":"m 451 500 l 56 1083 l 401 1083 l 604 749 l 613 749 l 810 1083 l 1138 1083 l 761 500 l 989 500 l 989 375 l 753 375 l 753 264 l 989 264 l 989 139 l 753 139 l 753 0 l 461 0 l 461 139 l 189 139 l 189 264 l 461 264 l 461 375 l 189 375 l 189 500 "},"+":{"ha":982,"x_min":0,"x_max":0,"o":"m 374 553 l 374 843 l 610 843 l 610 553 l 899 553 l 899 317 l 610 317 l 610 28 l 374 28 l 374 317 l 83 317 l 83 553 "},"−":{"ha":722,"x_min":0,"x_max":0,"o":"m 638 553 l 638 317 l 82 317 l 82 553 "},"×":{"ha":910,"x_min":0,"x_max":0,"o":"m 289 456 l 83 660 l 250 828 l 456 622 l 660 826 l 826 660 l 622 456 l 826 251 l 660 83 l 456 289 l 250 83 l 83 250 "},"÷":{"ha":982,"x_min":0,"x_max":0,"o":"m 899 542 l 899 347 l 83 347 l 83 542 m 353 264 l 631 264 l 631 56 l 353 56 m 353 833 l 631 833 l 631 625 l 353 625 "},"=":{"ha":982,"x_min":0,"x_max":0,"o":"m 899 386 l 899 150 l 83 150 l 83 386 m 83 761 l 899 761 l 899 525 l 83 525 "},"≠":{"ha":982,"x_min":0,"x_max":0,"o":"m 413 386 l 457 525 l 83 525 l 83 761 l 532 761 l 644 1111 l 811 1111 l 699 761 l 899 761 l 899 525 l 624 525 l 579 386 l 899 386 l 899 150 l 504 150 l 367 -278 l 200 -278 l 338 150 l 83 150 l 83 386 "},">":{"ha":639,"x_min":0,"x_max":0,"o":"m 83 68 l 83 249 l 399 413 l 399 421 l 83 582 l 83 763 l 556 506 l 556 325 "},"<":{"ha":639,"x_min":0,"x_max":0,"o":"m 83 506 l 556 763 l 556 582 l 240 421 l 240 413 l 556 249 l 556 68 l 83 325 "},"±":{"ha":982,"x_min":0,"x_max":0,"o":"m 374 675 l 374 850 l 610 850 l 610 675 l 899 675 l 899 481 l 610 481 l 610 306 l 374 306 l 374 481 l 83 481 l 83 675 m 214 243 l 769 243 l 769 49 l 214 49 "},"≈":{"ha":722,"x_min":0,"x_max":0,"o":"m 478 306 b 542 363 514 306 531 321 l 639 363 b 456 172 639 224 589 172 b 244 251 331 172 308 251 b 181 194 208 251 192 236 l 83 194 b 267 385 83 333 133 385 b 478 306 392 385 414 306 m 83 472 b 267 663 83 611 133 663 b 478 583 392 663 414 583 b 542 640 514 583 531 599 l 639 640 b 456 450 639 501 589 450 b 244 529 331 450 308 529 b 181 472 208 529 192 514 l 83 472 "},"~":{"ha":722,"x_min":0,"x_max":0,"o":"m 478 403 b 542 460 514 403 531 418 l 639 460 b 456 269 639 321 589 269 b 244 349 331 269 308 349 b 181 292 208 349 192 333 l 83 292 b 267 482 83 431 133 482 b 478 403 392 482 414 403 "},"^":{"ha":722,"x_min":0,"x_max":0,"o":"m 449 954 l 639 635 l 485 635 l 367 839 l 358 839 l 238 635 l 83 635 l 274 954 "},"%":{"ha":1340,"x_min":0,"x_max":0,"o":"m 901 1083 l 1096 1083 l 446 0 l 251 0 m 42 821 b 313 1099 42 1043 96 1099 b 583 821 529 1099 583 1043 b 313 543 583 599 529 543 b 42 821 96 543 42 599 m 204 821 b 313 676 204 690 215 676 b 421 821 410 676 421 690 b 313 965 421 951 410 965 b 204 821 215 965 204 951 m 757 261 b 1028 539 757 483 811 539 b 1299 261 1244 539 1299 483 b 1028 -17 1299 39 1244 -17 b 757 261 811 -17 757 39 m 919 261 b 1028 117 919 131 931 117 b 1136 261 1125 117 1136 131 b 1028 406 1136 392 1125 406 b 919 261 931 406 919 392 "},"‰":{"ha":1965,"x_min":0,"x_max":0,"o":"m 901 1083 l 1096 1083 l 446 0 l 251 0 m 42 821 b 313 1099 42 1043 96 1099 b 583 821 529 1099 583 1043 b 313 543 583 599 529 543 b 42 821 96 543 42 599 m 204 821 b 313 676 204 690 215 676 b 421 821 410 676 421 690 b 313 965 421 951 410 965 b 204 821 215 965 204 951 m 757 261 b 1028 539 757 483 811 539 b 1299 261 1244 539 1299 483 b 1028 -17 1299 39 1244 -17 b 757 261 811 -17 757 39 m 919 261 b 1028 117 919 131 931 117 b 1136 261 1125 117 1136 131 b 1028 406 1136 392 1125 406 b 919 261 931 406 919 392 m 1382 261 b 1653 539 1382 483 1436 539 b 1924 261 1869 539 1924 483 b 1653 -17 1924 39 1869 -17 b 1382 261 1436 -17 1382 39 m 1544 261 b 1653 117 1544 131 1556 117 b 1761 261 1750 117 1761 131 b 1653 406 1761 392 1750 406 b 1544 261 1556 406 1544 392 "},"̈":{"ha":0,"x_min":0,"x_max":0,"o":"m 306 1111 l 306 917 l 83 917 l 83 1111 m 389 1111 l 611 1111 l 611 917 l 389 917 "},"̇":{"ha":0,"x_min":0,"x_max":0,"o":"m 361 1111 l 361 917 l 83 917 l 83 1111 "},"̀":{"ha":0,"x_min":0,"x_max":0,"o":"m 292 917 l 83 1113 l 361 1113 l 458 917 "},"́":{"ha":0,"x_min":0,"x_max":0,"o":"m 181 1113 l 458 1113 l 250 917 l 83 917 "},"̋":{"ha":0,"x_min":0,"x_max":0,"o":"m 444 1113 l 653 1113 l 500 917 l 347 917 m 181 1113 l 389 1113 l 236 917 l 83 917 "},"̂":{"ha":0,"x_min":0,"x_max":0,"o":"m 449 1111 l 639 917 l 485 917 l 367 996 l 358 996 l 238 917 l 83 917 l 274 1111 "},"̌":{"ha":0,"x_min":0,"x_max":0,"o":"m 83 1111 l 238 1111 l 358 1032 l 367 1032 l 485 1111 l 639 1111 l 449 917 l 274 917 "},"̆":{"ha":0,"x_min":0,"x_max":0,"o":"m 500 1111 b 293 914 500 944 468 914 b 83 1111 117 914 83 944 l 208 1110 b 293 969 208 992 221 969 b 375 1111 363 969 375 992 l 500 1111 "},"̊":{"ha":0,"x_min":0,"x_max":0,"o":"m 244 917 b 83 1024 126 917 83 942 b 244 1128 83 1106 126 1128 b 403 1024 360 1128 403 1106 b 244 917 403 942 360 917 m 181 1022 b 243 967 181 975 189 967 b 306 1022 297 967 306 975 b 243 1078 306 1069 297 1078 b 181 1022 189 1078 181 1069 "},"̃":{"ha":0,"x_min":0,"x_max":0,"o":"m 478 1049 b 542 1106 514 1049 531 1064 l 639 1106 b 456 915 639 967 589 915 b 244 994 331 915 308 994 b 181 938 208 994 192 979 l 83 938 b 267 1128 83 1076 133 1128 b 478 1049 392 1128 414 1049 "},"̄":{"ha":0,"x_min":0,"x_max":0,"o":"m 528 931 l 83 931 l 83 1056 l 528 1056 "},"̒":{"ha":0,"x_min":0,"x_max":0,"o":"m 83 889 l 83 947 b 307 1128 83 1093 132 1128 l 346 1128 l 346 1064 b 214 1022 254 1064 222 1056 l 347 1022 l 347 889 "},"̦":{"ha":0,"x_min":0,"x_max":0,"o":"m 347 -56 l 347 -114 b 124 -294 347 -260 299 -294 l 85 -294 l 85 -231 b 217 -189 176 -231 208 -222 l 83 -189 l 83 -56 "},"̧":{"ha":0,"x_min":0,"x_max":0,"o":"m 346 -172 b 122 -294 346 -262 297 -294 l 83 -294 l 83 -231 b 218 -179 193 -231 218 -218 l 218 -165 b 83 -114 218 -126 193 -114 l 83 -50 l 199 1 l 240 1 l 207 -54 b 346 -172 314 -65 346 -103 "},"̨":{"ha":0,"x_min":0,"x_max":0,"o":"m 83 -187 b 268 0 83 -129 133 -79 l 332 0 b 211 -179 244 -86 211 -135 b 304 -214 211 -221 236 -231 l 304 -278 b 215 -294 283 -290 263 -294 b 83 -187 124 -294 83 -265 "},"¨":{"ha":694,"x_min":0,"x_max":0,"o":"m 306 1111 l 306 917 l 83 917 l 83 1111 m 389 1111 l 611 1111 l 611 917 l 389 917 "},"˙":{"ha":444,"x_min":0,"x_max":0,"o":"m 361 1111 l 361 917 l 83 917 l 83 1111 "},"`":{"ha":542,"x_min":0,"x_max":0,"o":"m 375 917 l 167 1113 l 444 1113 l 542 917 "},"´":{"ha":542,"x_min":0,"x_max":0,"o":"m 181 1113 l 458 1113 l 250 917 l 83 917 "},"˝":{"ha":736,"x_min":0,"x_max":0,"o":"m 444 1113 l 653 1113 l 500 917 l 347 917 m 181 1113 l 389 1113 l 236 917 l 83 917 "},"ˆ":{"ha":722,"x_min":0,"x_max":0,"o":"m 449 1111 l 639 917 l 485 917 l 367 996 l 358 996 l 238 917 l 83 917 l 274 1111 "},"ˇ":{"ha":722,"x_min":0,"x_max":0,"o":"m 83 1111 l 238 1111 l 358 1032 l 367 1032 l 485 1111 l 639 1111 l 449 917 l 274 917 "},"˘":{"ha":583,"x_min":0,"x_max":0,"o":"m 500 1111 b 293 914 500 944 468 914 b 83 1111 117 914 83 944 l 208 1110 b 293 969 208 992 221 969 b 375 1111 363 969 375 992 l 500 1111 "},"˚":{"ha":486,"x_min":0,"x_max":0,"o":"m 244 917 b 83 1024 126 917 83 942 b 244 1128 83 1106 126 1128 b 403 1024 360 1128 403 1106 b 244 917 403 942 360 917 m 181 1022 b 243 967 181 975 189 967 b 306 1022 297 967 306 975 b 243 1078 306 1069 297 1078 b 181 1022 189 1078 181 1069 "},"˜":{"ha":722,"x_min":0,"x_max":0,"o":"m 478 1049 b 542 1106 514 1049 531 1064 l 639 1106 b 456 915 639 967 589 915 b 244 994 331 915 308 994 b 181 938 208 994 192 979 l 83 938 b 267 1128 83 1076 133 1128 b 478 1049 392 1128 414 1049 "},"¯":{"ha":611,"x_min":0,"x_max":0,"o":"m 528 931 l 83 931 l 83 1056 l 528 1056 "},"¸":{"ha":429,"x_min":0,"x_max":0,"o":"m 346 -172 b 122 -294 346 -262 297 -294 l 83 -294 l 83 -231 b 218 -179 193 -231 218 -218 l 218 -165 b 83 -114 218 -126 193 -114 l 83 -50 l 199 1 l 240 1 l 207 -54 b 346 -172 314 -65 346 -103 "},"˛":{"ha":415,"x_min":0,"x_max":0,"o":"m 83 -187 b 268 0 83 -129 133 -79 l 332 0 b 211 -179 244 -86 211 -135 b 304 -214 211 -221 236 -231 l 304 -278 b 215 -294 283 -290 263 -294 b 83 -187 124 -294 83 -265 "}}}
